<svg width="1018" height="713" viewBox="0 0 1018 713" fill="none" xmlns="http://www.w3.org/2000/svg">
<rect width="1018" height="713" rx="20" fill="#F6F8FF"/>
<mask id="mask0" style="mask-type:alpha" maskUnits="userSpaceOnUse" x="16" y="382" width="1002" height="331">
<rect x="16.0473" y="382" width="1001.95" height="331" rx="20" fill="#F6F8FF"/>
</mask>
<g mask="url(#mask0)">
<path d="M743.899 478C765.448 478 777.992 484.008 785.917 493.517C793.904 503.1 797.342 516.388 800.296 531.313C800.794 533.829 801.278 536.389 801.767 538.982C807.056 566.985 813.057 598.757 845.663 619.234C878.587 639.911 914.027 633.615 944.906 628.129C947.395 627.687 949.855 627.25 952.282 626.833C968.631 624.022 983.389 622.118 995.714 625.275C1007.92 628.401 1017.85 636.526 1024.47 654.146C1037.92 689.916 1044.57 711.41 1044.57 732.858C1044.57 754.307 1037.92 775.801 1024.47 811.571C1011.03 847.333 1001.79 868.115 987.191 885.488C972.581 902.869 952.551 916.898 917.35 939.005C899.859 949.99 886.45 953.816 874.843 953.49C863.226 953.163 853.269 948.676 842.651 942.725C839.931 941.201 837.172 939.583 834.337 937.92C815.033 926.598 792.18 913.194 753.981 913.194C716.98 913.194 690.772 925.773 667.697 936.848C663.478 938.873 659.363 940.848 655.306 942.687C642.165 948.642 629.661 953.161 616.109 953.489C602.582 953.817 587.909 949.971 570.448 939.005C535.246 916.898 515.216 902.869 500.607 885.488C486.005 868.115 476.768 847.333 463.325 811.571C456.64 793.789 456.054 782.005 459.138 773.19C462.223 764.369 469.054 758.302 477.771 752.098C480.019 750.498 482.385 748.895 484.832 747.237C501.32 736.064 521.435 722.434 533.253 690.995C544.351 661.471 540.814 635.674 537.666 612.711C536.972 607.642 536.296 602.711 535.8 597.908C534.426 584.591 534.427 572.274 539.061 560.569C543.686 548.884 552.982 537.68 570.448 526.711C605.641 504.61 627.278 492.468 650.948 485.821C674.622 479.171 700.394 478 743.899 478Z" stroke="white" stroke-width="2"/>
<path d="M745.193 525.591C759.258 525.628 767.505 525.841 772.441 526.821C774.901 527.31 776.476 527.979 777.529 528.864C778.57 529.739 779.151 530.866 779.539 532.385C779.882 533.733 780.063 535.344 780.284 537.318C780.315 537.599 780.348 537.888 780.381 538.185C780.65 540.545 781.005 543.344 781.753 546.648C783.248 553.261 786.307 561.869 793.358 573.078C799.972 583.593 801.598 592.047 803.021 599.441C803.097 599.836 803.173 600.229 803.249 600.618C804.743 608.315 806.304 614.934 813.637 621.421C820.926 627.87 833.887 634.162 858.053 641.42C882.234 648.683 917.699 656.93 970.058 667.257C996.226 672.417 1016.17 677.377 1031 682.214C1045.84 687.054 1055.52 691.758 1061.18 696.386C1064.01 698.697 1065.82 700.97 1066.78 703.209C1067.74 705.44 1067.88 707.662 1067.32 709.906C1066.19 714.43 1062.22 719.074 1056.36 723.917C1050.51 728.746 1042.85 733.705 1034.47 738.881C1031.96 740.43 1029.39 741.999 1026.78 743.589C1020.69 747.304 1014.4 751.134 1008.32 755.099C999.629 760.764 991.324 766.721 984.52 773.051C977.718 779.378 972.387 786.103 969.686 793.309C968.11 797.513 966.608 801.585 965.153 805.526C956.762 828.261 949.975 846.652 940.001 861.041C928.332 877.874 912.292 889.234 884.119 895.513C856.089 901.76 838.882 888.818 819.877 874.143L819.184 873.608C800.372 859.078 779.714 843.123 745.194 843.123C710.589 843.123 689.759 859.123 670.829 873.665L670.276 874.089C651.189 888.749 633.983 901.69 606.27 895.513C550.627 883.112 527.672 839.559 520.728 793.41C518.998 781.912 520.132 774.142 523.124 767.952C526.124 761.746 531.017 757.069 536.949 751.788C537.567 751.238 538.195 750.681 538.834 750.117C550.452 739.835 565.231 726.756 576.583 696.471C587.173 668.22 586.424 646.987 585.778 628.646C585.693 626.254 585.611 623.911 585.555 621.608C585.315 611.629 585.584 602.426 588.391 593.197C591.195 583.977 596.545 574.698 606.517 564.6C645.358 525.271 686.695 525.404 740.694 525.577C742.184 525.582 743.683 525.587 745.193 525.591Z" stroke="white"/>
<path d="M747.461 563.677C758.799 567.47 765.779 573.232 770.58 580.136C775.407 587.077 778.068 595.22 780.678 603.88C780.899 604.616 781.121 605.355 781.343 606.096C786.334 622.771 791.753 640.873 812.795 654.074C834.153 667.473 855.294 665.653 874.479 664.001C875.004 663.956 875.527 663.911 876.049 663.866C895.735 662.183 913.135 661.152 927.426 676.569C934.856 684.584 942.713 689.674 950.02 693.509C953.477 695.324 956.816 696.861 959.915 698.287L960.426 698.522C963.679 700.02 966.641 701.397 969.236 702.875C974.415 705.825 977.968 709.081 979.309 714.221C980.669 719.435 979.815 726.797 975.565 738.092C967.078 760.646 949.148 789.154 927.692 812.782C906.2 836.448 881.366 855.001 859.127 857.995C847.962 859.497 839.47 858.443 832.117 856.04C824.85 853.665 818.66 849.965 812.018 845.994L811.707 845.809C798.164 837.713 782.973 828.784 754.029 828.784C725.119 828.784 706.409 837.564 689.568 845.574L689.175 845.76C672.507 853.688 657.721 860.72 636.424 857.994C614.829 855.229 592.228 845.38 574.338 831.629C556.432 817.865 543.382 800.301 540.645 782.181C539.298 773.262 541.83 766.941 546.686 761.621C551.61 756.226 558.913 751.867 567.172 746.974L567.463 746.802C583.835 737.106 603.494 725.461 613.14 699.827C622.023 676.222 618.773 654.226 615.847 634.416C615.586 632.65 615.327 630.902 615.08 629.171C612.051 607.942 610.748 589.502 626.441 573.674C658.118 541.723 701.324 548.243 747.461 563.677Z" stroke="white" stroke-width="2"/>
<path d="M689.032 563.197C700.003 563.197 710.169 568.123 719.835 575.936C729.503 583.75 738.628 594.417 747.512 605.824C751.22 610.585 754.891 615.483 758.542 620.353C763.617 627.123 768.65 633.838 773.681 640.051C782.339 650.743 791.062 660.045 800.139 665.757C818.204 677.125 832.656 681.69 846.888 683.406C856.89 684.611 866.795 684.407 877.735 684.181C882.319 684.086 887.084 683.988 892.114 683.988C909.051 683.988 927.47 692.556 939.942 705.69C952.405 718.815 958.865 736.424 952.073 754.528C948.676 763.583 942.062 771.399 933.448 778.388C924.834 785.377 914.245 791.52 902.937 797.238C894.437 801.535 885.548 805.584 876.796 809.571C873.902 810.889 871.023 812.2 868.178 813.511C856.741 818.783 845.857 824.052 836.823 829.736C832.371 832.538 828.434 833.897 824.867 834.164C821.307 834.43 818.081 833.609 815.044 831.992C808.936 828.742 803.62 822.297 797.962 815.035C797.429 814.351 796.894 813.66 796.355 812.965C785.511 798.976 773.149 783.028 751.669 783.028C740.398 783.028 731.189 787.418 723.172 793.605C716.112 799.054 709.951 805.919 704.112 812.423C703.332 813.292 702.558 814.155 701.788 815.007C695.23 822.264 689.011 828.723 682.218 831.983C678.835 833.607 675.32 834.431 671.555 834.164C667.788 833.896 663.738 832.535 659.291 829.736C642.446 819.137 625.939 822.082 611.866 824.593C610.735 824.794 609.62 824.993 608.522 825.182C601.102 826.458 594.506 827.267 588.917 825.534C583.383 823.817 578.751 819.575 575.351 810.51C571.974 801.51 573.41 792.595 577.735 783.669C582.067 774.729 589.279 765.819 597.387 756.87C600.725 753.185 604.223 749.485 607.729 745.778C612.709 740.512 617.705 735.228 622.283 729.945C630.096 720.926 636.781 711.811 640.252 702.557C645.93 687.423 644.121 674.2 642.51 662.426C642.155 659.827 641.809 657.298 641.555 654.835C640.852 648.006 640.852 641.688 643.224 635.683C645.593 629.689 650.352 623.943 659.291 618.318C668.399 612.587 672.09 606.188 673.14 599.79C674.142 593.684 672.723 587.633 671.477 582.325C671.427 582.11 671.377 581.896 671.327 581.683C670.684 578.935 670.12 576.41 669.969 574.153C669.819 571.9 670.087 569.974 671.054 568.396C672.016 566.826 673.717 565.525 676.589 564.616C679.469 563.704 683.491 563.197 689.032 563.197Z" stroke="white"/>
</g>
</svg>
