<svg width="13" height="13" viewBox="0 0 13 13" fill="none" xmlns="http://www.w3.org/2000/svg">
<path d="M2.0625 0.625H11.6875C12.4258 0.625 13 1.22656 13 1.9375V11.5625C13 12.3008 12.4258 12.875 11.6875 12.875H2.0625C1.35156 12.875 0.75 12.3008 0.75 11.5625V1.9375C0.75 1.22656 1.35156 0.625 2.0625 0.625ZM2.0625 11.5625H11.6875V1.9375H2.0625V11.5625ZM3.04688 4.97266C2.9375 4.83594 2.9375 4.64453 3.04688 4.50781L3.67578 3.87891C3.78516 3.74219 4.00391 3.74219 4.14062 3.87891L7.99609 7.70703L9.63672 6.06641C9.77344 5.92969 9.96484 5.92969 10.1016 6.06641L10.7305 6.66797C10.8398 6.80469 10.8398 7.02344 10.7305 7.13281L8.24219 9.64844C8.10547 9.78516 7.91406 9.78516 7.77734 9.64844L3.04688 4.97266Z" fill="#858585"/>
<path d="M2.0625 0.625H11.6875C12.4258 0.625 13 1.22656 13 1.9375V11.5625C13 12.3008 12.4258 12.875 11.6875 12.875H2.0625C1.35156 12.875 0.75 12.3008 0.75 11.5625V1.9375C0.75 1.22656 1.35156 0.625 2.0625 0.625ZM2.0625 11.5625H11.6875V1.9375H2.0625V11.5625ZM3.04688 4.97266C2.9375 4.83594 2.9375 4.64453 3.04688 4.50781L3.67578 3.87891C3.78516 3.74219 4.00391 3.74219 4.14062 3.87891L7.99609 7.70703L9.63672 6.06641C9.77344 5.92969 9.96484 5.92969 10.1016 6.06641L10.7305 6.66797C10.8398 6.80469 10.8398 7.02344 10.7305 7.13281L8.24219 9.64844C8.10547 9.78516 7.91406 9.78516 7.77734 9.64844L3.04688 4.97266Z" fill="#858585"/>
</svg>
