<svg width="20" height="21" viewBox="0 0 30 20" fill="none" xmlns="http://www.w3.org/2000/svg">
<path d="M29.011 17.1042H0.989012C0.442796 17.1042 0 17.547 0 18.0933C0 18.6395 0.442795 19.0823 0.989011 19.0823H29.011C29.5572 19.0823 30 18.6395 30 18.0933C30 17.547 29.5572 17.1042 29.011 17.1042Z" fill="white"/>
<path d="M29.011 8.76099H0.989011C0.442796 8.76099 0 9.20378 0 9.75C0 10.2962 0.442795 10.739 0.989011 10.739H29.011C29.5572 10.739 30 10.2962 30 9.75C30 9.20378 29.5572 8.76099 29.011 8.76099Z" fill="white"/>
<path d="M29.011 0.41748H0.989011C0.442796 0.41748 0 0.860276 0 1.40649C0 1.95271 0.442795 2.3955 0.989011 2.3955H29.011C29.5572 2.3955 30 1.95271 30 1.40649C30 0.860276 29.5572 0.41748 29.011 0.41748Z" fill="white"/>
</svg>
