<svg width="20" height="21" viewBox="0 0 20 21" fill="none" xmlns="http://www.w3.org/2000/svg">
<path fill-rule="evenodd" clip-rule="evenodd" d="M18.0435 10.6614C17.7118 10.2839 17.7118 9.71888 18.0435 9.34137L19.3235 7.90137C19.6128 7.5786 19.6613 7.10616 19.4435 6.73137L17.4435 3.27137C17.2279 2.89708 16.7964 2.70349 16.3735 2.79137L14.4935 3.17137C13.9984 3.27366 13.5049 2.99041 13.3435 2.51137L12.7335 0.681371C12.5959 0.274059 12.2134 0.000260872 11.7835 0.00137063H7.78346C7.33531 -0.0220208 6.92645 0.256 6.78346 0.681371L6.22346 2.51137C6.06204 2.99041 5.56851 3.27366 5.07346 3.17137L3.14346 2.79137C2.7438 2.73489 2.34937 2.92422 2.14346 3.27137L0.143459 6.73137C-0.0798071 7.10194 -0.0394549 7.57406 0.243459 7.90137L1.51346 9.34137C1.8451 9.71888 1.8451 10.2839 1.51346 10.6614L0.243459 12.1014C-0.0394549 12.4287 -0.0798071 12.9008 0.143459 13.2714L2.14346 16.7314C2.35903 17.1057 2.79056 17.2992 3.21346 17.2114L5.09346 16.8314C5.58851 16.7291 6.08204 17.0123 6.24346 17.4914L6.85346 19.3214C6.99645 19.7467 7.40531 20.0248 7.85346 20.0014H11.8535C12.2834 20.0025 12.6659 19.7287 12.8035 19.3214L13.4135 17.4914C13.5749 17.0123 14.0684 16.7291 14.5635 16.8314L16.4435 17.2114C16.8664 17.2992 17.2979 17.1057 17.5135 16.7314L19.5135 13.2714C19.7313 12.8966 19.6828 12.4241 19.3935 12.1014L18.0435 10.6614ZM16.5535 12.0014L17.3535 12.9014L16.0735 15.1214L14.8935 14.8814C13.4027 14.5766 11.9198 15.4362 11.4435 16.8814L11.0635 18.0014H8.50346L8.14346 16.8614C7.66708 15.4162 6.18425 14.5566 4.69346 14.8614L3.51346 15.1014L2.21346 12.8914L3.01346 11.9914C4.03203 10.8526 4.03203 9.13017 3.01346 7.99137L2.21346 7.09137L3.49346 4.89137L4.67346 5.13137C6.16425 5.43611 7.64708 4.5765 8.12346 3.13137L8.50346 2.00137H11.0635L11.4435 3.14137C11.9198 4.5865 13.4027 5.44611 14.8935 5.14137L16.0735 4.90137L17.3535 7.12137L16.5535 8.02137C15.5468 9.15706 15.5468 10.8657 16.5535 12.0014ZM9.78346 6.00137C7.57432 6.00137 5.78346 7.79223 5.78346 10.0014C5.78346 12.2105 7.57432 14.0014 9.78346 14.0014C11.9926 14.0014 13.7835 12.2105 13.7835 10.0014C13.7835 8.9405 13.362 7.92309 12.6119 7.17294C11.8617 6.4228 10.8443 6.00137 9.78346 6.00137ZM9.78346 12.0014C8.67889 12.0014 7.78346 11.1059 7.78346 10.0014C7.78346 8.8968 8.67889 8.00137 9.78346 8.00137C10.888 8.00137 11.7835 8.8968 11.7835 10.0014C11.7835 11.1059 10.888 12.0014 9.78346 12.0014Z" fill="white"/>
</svg>
