<svg width="24" height="25" viewBox="0 0 24 25" fill="none" xmlns="http://www.w3.org/2000/svg">
<path fill-rule="evenodd" clip-rule="evenodd" d="M7 3.19492C9.20914 3.19492 11 5.00095 11 7.22881C11 9.45667 9.20914 11.2627 7 11.2627C4.79086 11.2627 3 9.45667 3 7.22881C3 5.00095 4.79086 3.19492 7 3.19492ZM7 5.21186C5.89543 5.21186 5 6.11488 5 7.22881C5 8.34274 5.89543 9.24576 7 9.24576C8.10457 9.24576 9 8.34274 9 7.22881C9 6.11488 8.10457 5.21186 7 5.21186ZM17 3.19492C19.2091 3.19492 21 5.00095 21 7.22881C21 9.45667 19.2091 11.2627 17 11.2627C14.7909 11.2627 13 9.45667 13 7.22881C13 5.00095 14.7909 3.19492 17 3.19492ZM17 5.21186C15.8954 5.21186 15 6.11488 15 7.22881C15 8.34274 15.8954 9.24576 17 9.24576C18.1046 9.24576 19 8.34274 19 7.22881C19 6.11488 18.1046 5.21186 17 5.21186ZM11 17.3136C11 15.0857 9.20914 13.2797 7 13.2797C4.79086 13.2797 3 15.0857 3 17.3136C3 19.5414 4.79086 21.3475 7 21.3475C9.20914 21.3475 11 19.5414 11 17.3136ZM5 17.3136C5 16.1996 5.89543 15.2966 7 15.2966C8.10457 15.2966 9 16.1996 9 17.3136C9 18.4275 8.10457 19.3305 7 19.3305C5.89543 19.3305 5 18.4275 5 17.3136ZM17 13.2797C19.2091 13.2797 21 15.0857 21 17.3136C21 19.5414 19.2091 21.3475 17 21.3475C14.7909 21.3475 13 19.5414 13 17.3136C13 15.0857 14.7909 13.2797 17 13.2797ZM17 15.2966C15.8954 15.2966 15 16.1996 15 17.3136C15 18.4275 15.8954 19.3305 17 19.3305C18.1046 19.3305 19 18.4275 19 17.3136C19 16.1996 18.1046 15.2966 17 15.2966Z" fill="#D3D3FD"/>
</svg>
