<svg width="22" height="25" viewBox="0 0 22 25" fill="none" xmlns="http://www.w3.org/2000/svg">
<path d="M6.40234 4.15625C6.40234 3.59766 5.92969 3.125 5.37109 3.125H1.03125C0.429688 3.125 0 3.59766 0 4.15625V7.59375C0 8.19531 0.429688 8.625 1.03125 8.625H5.37109C5.92969 8.625 6.40234 8.19531 6.40234 7.59375V4.15625ZM14.1797 14.4688V11.0312C14.1797 10.4727 13.707 10 13.1484 10H8.80859C8.25 10 7.77734 10.4727 7.77734 11.0312V14.4688C7.77734 15.0703 8.25 15.5 8.80859 15.5H13.1484C13.707 15.5 14.1797 15.0703 14.1797 14.4688ZM15.5547 4.15625V7.59375C15.5547 8.19531 16.0273 8.625 16.5859 8.625H20.9688C21.5273 8.625 22 8.19531 22 7.59375V4.15625C22 3.59766 21.5273 3.125 20.9688 3.125H16.5859C16.0273 3.125 15.5547 3.59766 15.5547 4.15625ZM14.1797 7.59375V4.15625C14.1797 3.59766 13.707 3.125 13.1484 3.125H8.80859C8.25 3.125 7.77734 3.59766 7.77734 4.15625V7.59375C7.77734 8.19531 8.25 8.625 8.80859 8.625H13.1484C13.707 8.625 14.1797 8.19531 14.1797 7.59375ZM5.37109 10H1.03125C0.429688 10 0 10.4727 0 11.0312V14.4688C0 15.0703 0.429688 15.5 1.03125 15.5H5.37109C5.92969 15.5 6.40234 15.0703 6.40234 14.4688V11.0312C6.40234 10.4727 5.92969 10 5.37109 10ZM0 17.9062V21.3438C0 21.9453 0.429688 22.375 1.03125 22.375H5.37109C5.92969 22.375 6.40234 21.9453 6.40234 21.3438V17.9062C6.40234 17.3477 5.92969 16.875 5.37109 16.875H1.03125C0.429688 16.875 0 17.3477 0 17.9062ZM16.5859 15.5H20.9688C21.5273 15.5 22 15.0703 22 14.4688V11.0312C22 10.4727 21.5273 10 20.9688 10H16.5859C16.0273 10 15.5547 10.4727 15.5547 11.0312V14.4688C15.5547 15.0703 16.0273 15.5 16.5859 15.5ZM16.5859 22.375H20.9688C21.5273 22.375 22 21.9453 22 21.3438V17.9062C22 17.3477 21.5273 16.875 20.9688 16.875H16.5859C16.0273 16.875 15.5547 17.3477 15.5547 17.9062V21.3438C15.5547 21.9453 16.0273 22.375 16.5859 22.375ZM7.77734 17.9062V21.3438C7.77734 21.9453 8.25 22.375 8.80859 22.375H13.1484C13.707 22.375 14.1797 21.9453 14.1797 21.3438V17.9062C14.1797 17.3477 13.707 16.875 13.1484 16.875H8.80859C8.25 16.875 7.77734 17.3477 7.77734 17.9062Z" fill="#3D41D7"/>
</svg>
