<svg width="314" height="331" viewBox="0 0 314 331" fill="none" xmlns="http://www.w3.org/2000/svg">
<rect width="314" height="331" rx="20" fill="#F6F8FF"/>
<mask id="mask0" style="mask-type:alpha" maskUnits="userSpaceOnUse" x="0" y="0" width="314" height="331">
<rect width="314" height="331" rx="20" fill="#F6F8FF"/>
</mask>
<g mask="url(#mask0)">
<path d="M254.952 199C280.517 199 295.429 205.037 304.833 214.578C314.277 224.161 318.335 237.433 321.825 252.347C322.414 254.86 322.985 257.417 323.563 260.005C329.825 288.036 336.925 319.813 375.443 340.271C414.274 360.895 456.057 354.618 492.581 349.132C495.522 348.69 498.429 348.254 501.298 347.837C520.62 345.027 538.139 343.109 552.792 346.284C567.34 349.436 579.093 357.617 586.908 375.2C602.81 410.977 610.662 432.446 610.662 453.858C610.662 475.271 602.81 496.74 586.908 532.517C571.016 568.273 560.096 589.051 542.827 606.426C525.539 623.821 501.835 637.86 460.208 659.969C439.506 670.964 423.591 674.818 409.777 674.489C395.957 674.161 384.13 669.646 371.571 663.694C368.351 662.167 365.086 660.548 361.731 658.884C338.904 647.562 311.951 634.194 266.875 634.194C223.203 634.194 192.281 646.744 164.996 657.818C160.003 659.845 155.132 661.822 150.326 663.664C134.782 669.621 119.95 674.159 103.857 674.489C87.7818 674.819 70.3728 670.95 49.6969 659.969C8.07043 637.86 -15.6341 623.821 -32.922 606.426C-50.1906 589.051 -61.1107 568.273 -77.0033 532.517C-84.9036 514.742 -85.5784 503.006 -81.9531 494.242C-78.311 485.436 -70.2309 479.359 -59.8982 473.14C-57.2405 471.54 -54.4424 469.937 -51.5499 468.279C-32.0638 457.114 -8.29324 443.493 5.68241 412.049C18.8223 382.487 14.6321 356.641 10.9088 333.675C10.0876 328.609 9.289 323.684 8.70415 318.889C7.08111 305.584 7.08405 293.3 12.5493 281.625C18.0115 269.956 29.0059 258.737 49.6969 247.748C91.3063 225.648 116.921 213.489 144.954 206.831C172.997 200.17 203.513 199 254.952 199Z" stroke="white" stroke-width="2"/>
<path d="M256.483 246.591C273.108 246.628 282.879 246.84 288.734 247.824C291.659 248.315 293.545 248.991 294.81 249.889C296.053 250.772 296.736 251.901 297.189 253.406C297.593 254.748 297.806 256.353 298.068 258.328C298.105 258.61 298.143 258.898 298.183 259.195C298.501 261.556 298.922 264.358 299.806 267.667C301.577 274.289 305.197 282.901 313.534 294.11C321.351 304.62 323.273 313.066 324.954 320.456C325.044 320.852 325.134 321.245 325.223 321.635C326.105 325.472 327.01 329.066 328.781 332.502C330.557 335.949 333.192 339.219 337.506 342.447C346.109 348.883 361.411 355.169 389.98 362.425C418.566 369.686 460.495 377.933 522.405 388.259C553.35 393.421 576.94 398.381 594.484 403.22C612.04 408.063 623.498 412.772 630.214 417.41C633.569 419.727 635.706 422.004 636.843 424.238C637.972 426.457 638.127 428.66 637.47 430.885C636.808 433.127 635.313 435.416 633.096 437.76C630.881 440.103 627.968 442.477 624.507 444.893C617.585 449.726 608.529 454.687 598.617 459.863C595.65 461.413 592.606 462.982 589.521 464.572C582.314 468.287 574.886 472.115 567.695 476.08C557.423 481.743 547.608 487.698 539.567 494.024C531.531 500.346 525.227 507.069 522.03 514.281C520.167 518.486 518.39 522.558 516.669 526.5C506.748 549.234 498.724 567.621 486.931 582.009C473.13 598.847 454.143 610.223 420.791 616.51C387.564 622.773 367.165 609.787 344.704 595.12L343.896 594.592C321.643 580.057 297.248 564.123 256.485 564.123C215.618 564.123 191.021 580.102 168.628 594.649L167.986 595.067C145.429 609.718 125.03 622.702 92.1784 616.51C59.2136 610.296 35.9733 596.282 19.9474 578.085C3.91662 559.882 -4.92273 537.461 -9.02599 514.396C-11.069 502.912 -9.73047 495.161 -6.19935 488.983C-2.65277 482.778 3.1357 478.098 10.1538 472.814C10.8852 472.263 11.6292 471.706 12.3845 471.141C26.1157 460.865 43.5897 447.787 57.0146 417.498C69.5424 389.234 68.6567 367.985 67.8922 349.643C67.7925 347.251 67.6949 344.908 67.6293 342.606C67.3452 332.63 67.6632 323.438 70.9784 314.22C74.2909 305.011 80.6127 295.732 92.411 285.629C138.372 246.27 187.309 246.403 251.161 246.577C252.923 246.582 254.698 246.587 256.483 246.591Z" stroke="white"/>
<path d="M259.268 284.691C272.738 288.502 281.019 294.291 286.7 301.2C292.405 308.138 295.547 316.271 298.632 324.928C298.892 325.656 299.151 326.389 299.411 327.123C305.325 343.83 311.732 361.928 336.578 375.11C361.751 388.466 386.651 386.653 409.34 385.001C409.957 384.956 410.571 384.911 411.184 384.867C434.467 383.183 455.182 382.142 472.156 397.628C480.93 405.632 490.202 410.711 498.823 414.538C502.904 416.35 506.848 417.885 510.513 419.311L511.115 419.545C514.96 421.043 518.473 422.424 521.552 423.907C527.727 426.882 531.924 430.156 533.5 435.264C535.092 440.424 534.103 447.743 529.078 459.038C519.048 481.58 497.85 510.087 472.471 533.722C447.071 557.377 417.659 575.986 391.248 578.992C377.999 580.5 367.906 579.443 359.165 577.027C350.541 574.644 343.201 570.932 335.357 566.967L334.977 566.775C318.97 558.683 301.066 549.784 266.932 549.784C232.825 549.784 210.756 558.541 190.844 566.549L190.353 566.746C170.664 574.666 153.106 581.728 127.827 578.992C102.227 576.22 75.4579 566.349 54.2812 552.583C33.0685 538.793 17.6592 521.225 14.4318 503.154C13.6349 498.692 13.9974 494.913 15.2467 491.6C16.4985 488.281 18.6644 485.368 21.5656 482.68C27.4045 477.27 36.0663 472.899 45.8291 468.008L46.1959 467.824C65.5242 458.143 88.7401 446.514 100.145 420.882C110.665 397.239 106.814 375.199 103.354 355.392C103.045 353.625 102.74 351.876 102.448 350.146C100.657 339.534 99.3786 329.648 100.863 320.421C102.339 311.248 106.555 302.681 115.874 294.731C153.438 262.688 204.704 269.255 259.268 284.691Z" stroke="white" stroke-width="2"/>
<path d="M190.075 284.197C203.102 284.197 215.154 289.144 226.588 296.96C238.027 304.778 248.82 315.449 259.324 326.856C263.709 331.617 268.05 336.516 272.366 341.385C278.367 348.155 284.318 354.869 290.267 361.082C300.506 371.776 310.814 381.071 321.533 386.775C357.937 406.148 381.898 405.729 413.172 405.182C418.596 405.087 424.241 404.988 430.209 404.988C450.291 404.988 472.103 413.578 486.858 426.719C501.611 439.858 509.216 457.441 501.204 475.501C497.19 484.549 489.371 492.367 479.174 499.364C468.98 506.359 456.451 512.505 443.076 518.224C433.023 522.523 422.509 526.573 412.16 530.56C408.739 531.878 405.335 533.189 401.972 534.5C388.448 539.771 375.585 545.038 364.91 550.718C354.38 556.322 346.197 556.215 339.005 552.978C331.76 549.717 325.466 543.26 318.781 536.003C318.155 535.324 317.527 534.639 316.894 533.948C304.051 519.939 289.466 504.028 264.141 504.028C239.167 504.028 222.742 519.505 208.027 533.371C207.097 534.248 206.174 535.118 205.256 535.977C197.506 543.229 190.142 549.701 182.086 552.971C174.075 556.222 165.35 556.317 154.829 550.718C134.96 540.145 115.502 543.08 98.8585 545.591C97.5223 545.793 96.2043 545.991 94.9057 546.18C86.1364 547.456 78.2979 548.272 71.6469 546.528C65.0486 544.797 59.5702 540.529 55.5575 531.483C51.5765 522.509 53.2639 513.62 58.3757 504.699C63.4967 495.762 72.0238 486.851 81.6134 477.899C85.5629 474.213 89.6996 470.513 93.8454 466.806C99.733 461.54 105.639 456.259 111.052 450.975C120.287 441.96 128.193 432.844 132.3 423.585C139.022 408.431 136.879 395.184 134.974 383.408C134.553 380.811 134.145 378.285 133.845 375.826C133.015 369.002 133.016 362.701 135.814 356.711C138.611 350.725 144.24 344.971 154.829 339.336C165.569 333.62 169.946 327.229 171.192 320.804C172.38 314.681 170.697 308.614 169.226 303.31C169.166 303.093 169.106 302.878 169.047 302.664C168.286 299.914 167.621 297.396 167.444 295.147C167.267 292.907 167.581 290.998 168.718 289.428C169.859 287.854 171.888 286.54 175.314 285.622C178.741 284.704 183.515 284.197 190.075 284.197Z" stroke="white"/>
</g>
</svg>
