<svg width="438" height="164" viewBox="0 0 438 164" fill="none" xmlns="http://www.w3.org/2000/svg">
<rect x="4" width="430" height="164" rx="20" fill="#F6F8FF"/>
<path d="M270.002 150.773H266.428L265.625 153H264.465L267.723 144.469H268.707L271.971 153H270.817L270.002 150.773ZM266.768 149.848H269.668L268.215 145.857L266.768 149.848ZM275.719 150.064L275.039 150.773V153H273.955V144H275.039V149.443L275.619 148.746L277.594 146.66H278.912L276.446 149.309L279.199 153H277.928L275.719 150.064ZM282.502 145.125V146.66H283.686V147.498H282.502V151.43C282.502 151.684 282.555 151.875 282.66 152.004C282.766 152.129 282.946 152.191 283.199 152.191C283.324 152.191 283.496 152.168 283.715 152.121V153C283.43 153.078 283.153 153.117 282.883 153.117C282.399 153.117 282.033 152.971 281.787 152.678C281.541 152.385 281.418 151.969 281.418 151.43V147.498H280.264V146.66H281.418V145.125H282.502ZM287.135 153H286.051V146.66H287.135V153ZM285.963 144.979C285.963 144.803 286.016 144.654 286.121 144.533C286.231 144.412 286.391 144.352 286.602 144.352C286.813 144.352 286.973 144.412 287.082 144.533C287.192 144.654 287.246 144.803 287.246 144.979C287.246 145.154 287.192 145.301 287.082 145.418C286.973 145.535 286.813 145.594 286.602 145.594C286.391 145.594 286.231 145.535 286.121 145.418C286.016 145.301 285.963 145.154 285.963 144.979ZM291.967 151.529L293.537 146.66H294.645L292.371 153H291.545L289.248 146.66H290.356L291.967 151.529ZM297.865 153H296.781V144H297.865V153ZM301.783 153H300.699V146.66H301.783V153ZM300.612 144.979C300.612 144.803 300.664 144.654 300.77 144.533C300.879 144.412 301.039 144.352 301.25 144.352C301.461 144.352 301.621 144.412 301.731 144.533C301.84 144.654 301.895 144.803 301.895 144.979C301.895 145.154 301.84 145.301 301.731 145.418C301.621 145.535 301.461 145.594 301.25 145.594C301.039 145.594 300.879 145.535 300.77 145.418C300.664 145.301 300.612 145.154 300.612 144.979ZM306.293 150.064L305.613 150.773V153H304.53V144H305.613V149.443L306.194 148.746L308.168 146.66H309.487L307.02 149.309L309.774 153H308.502L306.293 150.064Z" fill="#6A6968"/>
<path d="M134.319 152V143.6H136.899C138.379 143.6 139.467 143.976 140.163 144.728C140.867 145.48 141.219 146.512 141.219 147.824C141.219 149.112 140.867 150.132 140.163 150.884C139.467 151.628 138.379 152 136.899 152H134.319ZM135.327 151.16H136.875C137.691 151.16 138.339 151.028 138.819 150.764C139.307 150.492 139.655 150.108 139.863 149.612C140.071 149.108 140.175 148.512 140.175 147.824C140.175 147.12 140.071 146.516 139.863 146.012C139.655 145.508 139.307 145.12 138.819 144.848C138.339 144.576 137.691 144.44 136.875 144.44H135.327V151.16ZM144.595 152.144C144.099 152.144 143.687 152.06 143.359 151.892C143.031 151.724 142.787 151.5 142.627 151.22C142.467 150.94 142.387 150.636 142.387 150.308C142.387 149.7 142.619 149.232 143.083 148.904C143.547 148.576 144.179 148.412 144.979 148.412H146.587V148.34C146.587 147.82 146.451 147.428 146.179 147.164C145.907 146.892 145.543 146.756 145.087 146.756C144.695 146.756 144.355 146.856 144.067 147.056C143.787 147.248 143.611 147.532 143.539 147.908H142.507C142.547 147.476 142.691 147.112 142.939 146.816C143.195 146.52 143.511 146.296 143.887 146.144C144.263 145.984 144.663 145.904 145.087 145.904C145.919 145.904 146.543 146.128 146.959 146.576C147.383 147.016 147.595 147.604 147.595 148.34V152H146.695L146.635 150.932C146.467 151.268 146.219 151.556 145.891 151.796C145.571 152.028 145.139 152.144 144.595 152.144ZM144.751 151.292C145.135 151.292 145.463 151.192 145.735 150.992C146.015 150.792 146.227 150.532 146.371 150.212C146.515 149.892 146.587 149.556 146.587 149.204V149.192H145.063C144.471 149.192 144.051 149.296 143.803 149.504C143.563 149.704 143.443 149.956 143.443 150.26C143.443 150.572 143.555 150.824 143.779 151.016C144.011 151.2 144.335 151.292 144.751 151.292ZM150.6 152L148.344 146.048H149.4L151.188 151.028L152.988 146.048H154.02L151.764 152H150.6ZM156.818 152.144C156.322 152.144 155.91 152.06 155.582 151.892C155.254 151.724 155.01 151.5 154.85 151.22C154.69 150.94 154.61 150.636 154.61 150.308C154.61 149.7 154.842 149.232 155.306 148.904C155.77 148.576 156.402 148.412 157.202 148.412H158.81V148.34C158.81 147.82 158.674 147.428 158.402 147.164C158.13 146.892 157.766 146.756 157.31 146.756C156.918 146.756 156.578 146.856 156.29 147.056C156.01 147.248 155.834 147.532 155.762 147.908H154.73C154.77 147.476 154.914 147.112 155.162 146.816C155.418 146.52 155.734 146.296 156.11 146.144C156.486 145.984 156.886 145.904 157.31 145.904C158.142 145.904 158.766 146.128 159.182 146.576C159.606 147.016 159.818 147.604 159.818 148.34V152H158.918L158.858 150.932C158.69 151.268 158.442 151.556 158.114 151.796C157.794 152.028 157.362 152.144 156.818 152.144ZM156.974 151.292C157.358 151.292 157.686 151.192 157.958 150.992C158.238 150.792 158.45 150.532 158.594 150.212C158.738 149.892 158.81 149.556 158.81 149.204V149.192H157.286C156.694 149.192 156.274 149.296 156.026 149.504C155.786 149.704 155.666 149.956 155.666 150.26C155.666 150.572 155.778 150.824 156.002 151.016C156.234 151.2 156.558 151.292 156.974 151.292ZM161.33 152V146.048H162.242L162.314 146.912C162.506 146.592 162.762 146.344 163.082 146.168C163.402 145.992 163.762 145.904 164.162 145.904C164.634 145.904 165.038 146 165.374 146.192C165.718 146.384 165.982 146.676 166.166 147.068C166.374 146.708 166.658 146.424 167.018 146.216C167.386 146.008 167.782 145.904 168.206 145.904C168.918 145.904 169.486 146.12 169.91 146.552C170.334 146.976 170.546 147.632 170.546 148.52V152H169.55V148.628C169.55 148.012 169.426 147.548 169.178 147.236C168.93 146.924 168.574 146.768 168.11 146.768C167.63 146.768 167.23 146.956 166.91 147.332C166.598 147.7 166.442 148.228 166.442 148.916V152H165.434V148.628C165.434 148.012 165.31 147.548 165.062 147.236C164.814 146.924 164.458 146.768 163.994 146.768C163.522 146.768 163.126 146.956 162.806 147.332C162.494 147.7 162.338 148.228 162.338 148.916V152H161.33ZM172.676 144.728C172.476 144.728 172.308 144.664 172.172 144.536C172.044 144.4 171.98 144.232 171.98 144.032C171.98 143.84 172.044 143.68 172.172 143.552C172.308 143.424 172.476 143.36 172.676 143.36C172.868 143.36 173.032 143.424 173.168 143.552C173.304 143.68 173.372 143.84 173.372 144.032C173.372 144.232 173.304 144.4 173.168 144.536C173.032 144.664 172.868 144.728 172.676 144.728ZM172.172 152V146.048H173.18V152H172.172ZM175.583 154.64L177.059 151.424H176.711L174.347 146.048H175.439L177.407 150.68L179.495 146.048H180.539L176.639 154.64H175.583ZM182.251 154.64L183.727 151.424H183.379L181.015 146.048H182.107L184.075 150.68L186.163 146.048H187.207L183.307 154.64H182.251ZM190.181 152.144C189.605 152.144 189.105 152.016 188.681 151.76C188.265 151.496 187.945 151.152 187.721 150.728C187.497 150.304 187.385 149.848 187.385 149.36C187.385 149.272 187.385 149.184 187.385 149.096C187.393 149.008 187.401 148.908 187.409 148.796H192.149C192.125 148.34 192.017 147.964 191.825 147.668C191.641 147.364 191.405 147.136 191.117 146.984C190.829 146.832 190.525 146.756 190.205 146.756C189.797 146.756 189.449 146.852 189.161 147.044C188.881 147.236 188.677 147.496 188.549 147.824H187.553C187.713 147.272 188.017 146.816 188.465 146.456C188.921 146.088 189.501 145.904 190.205 145.904C190.773 145.904 191.277 146.036 191.717 146.3C192.157 146.556 192.501 146.916 192.749 147.38C193.005 147.844 193.133 148.392 193.133 149.024C193.133 149.648 193.009 150.196 192.761 150.668C192.513 151.132 192.165 151.496 191.717 151.76C191.277 152.016 190.765 152.144 190.181 152.144ZM190.205 151.292C190.693 151.292 191.121 151.148 191.489 150.86C191.857 150.564 192.073 150.136 192.137 149.576H188.381C188.405 150.112 188.589 150.532 188.933 150.836C189.277 151.14 189.701 151.292 190.205 151.292ZM196.658 152C196.114 152 195.686 151.868 195.374 151.604C195.062 151.34 194.906 150.864 194.906 150.176V146.9H193.874V146.048H194.906L195.038 144.62H195.914V146.048H197.666V146.9H195.914V150.176C195.914 150.552 195.99 150.808 196.142 150.944C196.294 151.072 196.562 151.136 196.946 151.136H197.57V152H196.658Z" fill="#6A6A6A"/>
<ellipse cx="117.612" cy="148" rx="5.75251" ry="4" fill="#3D41D7"/>
<ellipse cx="248.482" cy="149" rx="5.75251" ry="4" fill="#FF8831"/>
<path d="M44.1164 137V131.546L43.0994 131.771V131.249L44.3684 130.7H44.8814V137H44.1164ZM46.7332 137L49.2353 131.348H45.7792V130.7H50.0093V131.267L47.5343 137H46.7332ZM53.5899 137V133.175H52.9149V132.536H53.5899V131.762C53.5899 131.33 53.6979 131.015 53.9139 130.817C54.1299 130.619 54.4449 130.52 54.8589 130.52H55.3089V131.168H54.9759C54.7479 131.168 54.5859 131.216 54.4899 131.312C54.3939 131.402 54.3459 131.558 54.3459 131.78V132.536H55.4439V133.175H54.3459V137H53.5899ZM58.1752 137.108C57.7492 137.108 57.3712 137.012 57.0412 136.82C56.7112 136.622 56.4502 136.349 56.2582 136.001C56.0722 135.653 55.9792 135.242 55.9792 134.768C55.9792 134.3 56.0722 133.892 56.2582 133.544C56.4442 133.19 56.7022 132.917 57.0322 132.725C57.3682 132.527 57.7552 132.428 58.1932 132.428C58.6252 132.428 58.9972 132.527 59.3092 132.725C59.6272 132.917 59.8702 133.172 60.0382 133.49C60.2062 133.808 60.2902 134.15 60.2902 134.516C60.2902 134.582 60.2872 134.648 60.2812 134.714C60.2812 134.78 60.2812 134.855 60.2812 134.939H56.7262C56.7442 135.281 56.8222 135.566 56.9602 135.794C57.1042 136.016 57.2812 136.184 57.4912 136.298C57.7072 136.412 57.9352 136.469 58.1752 136.469C58.4872 136.469 58.7482 136.397 58.9582 136.253C59.1682 136.109 59.3212 135.914 59.4172 135.668H60.1642C60.0442 136.082 59.8132 136.427 59.4712 136.703C59.1352 136.973 58.7032 137.108 58.1752 137.108ZM58.1752 133.067C57.8152 133.067 57.4942 133.178 57.2122 133.4C56.9362 133.616 56.7772 133.934 56.7352 134.354H59.5432C59.5252 133.952 59.3872 133.637 59.1292 133.409C58.8712 133.181 58.5532 133.067 58.1752 133.067ZM62.4034 137L60.7114 132.536H61.5034L62.8444 136.271L64.1944 132.536H64.9684L63.2764 137H62.4034Z" fill="#8F92A1"/>
<path d="M102.36 137V136.469C102.786 136.133 103.188 135.794 103.566 135.452C103.95 135.104 104.289 134.762 104.583 134.426C104.883 134.09 105.117 133.76 105.285 133.436C105.459 133.112 105.546 132.8 105.546 132.5C105.546 132.278 105.507 132.071 105.429 131.879C105.357 131.687 105.237 131.534 105.069 131.42C104.901 131.3 104.673 131.24 104.385 131.24C104.109 131.24 103.878 131.303 103.692 131.429C103.506 131.549 103.365 131.711 103.269 131.915C103.179 132.119 103.134 132.338 103.134 132.572H102.405C102.405 132.158 102.492 131.804 102.666 131.51C102.84 131.21 103.077 130.982 103.377 130.826C103.677 130.67 104.016 130.592 104.394 130.592C104.952 130.592 105.408 130.751 105.762 131.069C106.122 131.381 106.302 131.849 106.302 132.473C106.302 132.845 106.209 133.214 106.023 133.58C105.837 133.94 105.6 134.291 105.312 134.633C105.024 134.969 104.715 135.284 104.385 135.578C104.061 135.872 103.758 136.136 103.476 136.37H106.518V137H102.36ZM110.127 137V135.65H106.932V135.065L109.992 130.7H110.874V134.984H111.81V135.65H110.874V137H110.127ZM107.769 134.984H110.163V131.537L107.769 134.984ZM114.932 137V133.175H114.257V132.536H114.932V131.762C114.932 131.33 115.04 131.015 115.256 130.817C115.472 130.619 115.787 130.52 116.201 130.52H116.651V131.168H116.318C116.09 131.168 115.928 131.216 115.832 131.312C115.736 131.402 115.688 131.558 115.688 131.78V132.536H116.786V133.175H115.688V137H114.932ZM119.331 137.108C118.905 137.108 118.527 137.012 118.197 136.82C117.867 136.622 117.606 136.349 117.414 136.001C117.228 135.653 117.135 135.242 117.135 134.768C117.135 134.3 117.228 133.892 117.414 133.544C117.6 133.19 117.858 132.917 118.188 132.725C118.524 132.527 118.911 132.428 119.349 132.428C119.781 132.428 120.153 132.527 120.465 132.725C120.783 132.917 121.026 133.172 121.194 133.49C121.362 133.808 121.446 134.15 121.446 134.516C121.446 134.582 121.443 134.648 121.437 134.714C121.437 134.78 121.437 134.855 121.437 134.939H117.882C117.9 135.281 117.978 135.566 118.116 135.794C118.26 136.016 118.437 136.184 118.647 136.298C118.863 136.412 119.091 136.469 119.331 136.469C119.643 136.469 119.904 136.397 120.114 136.253C120.324 136.109 120.477 135.914 120.573 135.668H121.32C121.2 136.082 120.969 136.427 120.627 136.703C120.291 136.973 119.859 137.108 119.331 137.108ZM119.331 133.067C118.971 133.067 118.65 133.178 118.368 133.4C118.092 133.616 117.933 133.934 117.891 134.354H120.699C120.681 133.952 120.543 133.637 120.285 133.409C120.027 133.181 119.709 133.067 119.331 133.067ZM123.374 137L121.682 132.536H122.474L123.815 136.271L125.165 132.536H125.939L124.247 137H123.374Z" fill="#8F92A1"/>
<path d="M156.193 137.108C155.791 137.108 155.428 137.036 155.104 136.892C154.78 136.742 154.519 136.52 154.321 136.226C154.129 135.932 154.027 135.566 154.015 135.128H154.78C154.786 135.488 154.912 135.8 155.158 136.064C155.404 136.322 155.749 136.451 156.193 136.451C156.637 136.451 156.97 136.328 157.192 136.082C157.42 135.836 157.534 135.539 157.534 135.191C157.534 134.897 157.462 134.657 157.318 134.471C157.18 134.285 156.991 134.147 156.751 134.057C156.517 133.967 156.259 133.922 155.977 133.922H155.509V133.283H155.977C156.385 133.283 156.703 133.19 156.931 133.004C157.165 132.818 157.282 132.557 157.282 132.221C157.282 131.939 157.189 131.708 157.003 131.528C156.823 131.342 156.553 131.249 156.193 131.249C155.845 131.249 155.566 131.354 155.356 131.564C155.146 131.768 155.029 132.026 155.005 132.338H154.24C154.258 131.996 154.348 131.693 154.51 131.429C154.678 131.165 154.906 130.961 155.194 130.817C155.482 130.667 155.815 130.592 156.193 130.592C156.601 130.592 156.94 130.664 157.21 130.808C157.486 130.952 157.693 131.144 157.831 131.384C157.975 131.624 158.047 131.888 158.047 132.176C158.047 132.494 157.96 132.785 157.786 133.049C157.612 133.307 157.351 133.481 157.003 133.571C157.375 133.649 157.684 133.826 157.93 134.102C158.176 134.378 158.299 134.741 158.299 135.191C158.299 135.539 158.218 135.86 158.056 136.154C157.9 136.442 157.666 136.673 157.354 136.847C157.042 137.021 156.655 137.108 156.193 137.108ZM161.488 137V132.536H162.172L162.226 133.184C162.37 132.944 162.562 132.758 162.802 132.626C163.042 132.494 163.312 132.428 163.612 132.428C163.966 132.428 164.269 132.5 164.521 132.644C164.779 132.788 164.977 133.007 165.115 133.301C165.271 133.031 165.484 132.818 165.754 132.662C166.03 132.506 166.327 132.428 166.645 132.428C167.179 132.428 167.605 132.59 167.923 132.914C168.241 133.232 168.4 133.724 168.4 134.39V137H167.653V134.471C167.653 134.009 167.56 133.661 167.374 133.427C167.188 133.193 166.921 133.076 166.573 133.076C166.213 133.076 165.913 133.217 165.673 133.499C165.439 133.775 165.322 134.171 165.322 134.687V137H164.566V134.471C164.566 134.009 164.473 133.661 164.287 133.427C164.101 133.193 163.834 133.076 163.486 133.076C163.132 133.076 162.835 133.217 162.595 133.499C162.361 133.775 162.244 134.171 162.244 134.687V137H161.488ZM170.838 137.108C170.466 137.108 170.157 137.045 169.911 136.919C169.665 136.793 169.482 136.625 169.362 136.415C169.242 136.205 169.182 135.977 169.182 135.731C169.182 135.275 169.356 134.924 169.704 134.678C170.052 134.432 170.526 134.309 171.126 134.309H172.332V134.255C172.332 133.865 172.23 133.571 172.026 133.373C171.822 133.169 171.549 133.067 171.207 133.067C170.913 133.067 170.658 133.142 170.442 133.292C170.232 133.436 170.1 133.649 170.046 133.931H169.272C169.302 133.607 169.41 133.334 169.596 133.112C169.788 132.89 170.025 132.722 170.307 132.608C170.589 132.488 170.889 132.428 171.207 132.428C171.831 132.428 172.299 132.596 172.611 132.932C172.929 133.262 173.088 133.703 173.088 134.255V137H172.413L172.368 136.199C172.242 136.451 172.056 136.667 171.81 136.847C171.57 137.021 171.246 137.108 170.838 137.108ZM170.955 136.469C171.243 136.469 171.489 136.394 171.693 136.244C171.903 136.094 172.062 135.899 172.17 135.659C172.278 135.419 172.332 135.167 172.332 134.903V134.894H171.189C170.745 134.894 170.43 134.972 170.244 135.128C170.064 135.278 169.974 135.467 169.974 135.695C169.974 135.929 170.058 136.118 170.226 136.262C170.4 136.4 170.643 136.469 170.955 136.469ZM174.036 137V132.536H174.72L174.783 133.391C174.921 133.097 175.131 132.863 175.413 132.689C175.695 132.515 176.043 132.428 176.457 132.428V133.22H176.25C175.986 133.22 175.743 133.268 175.521 133.364C175.299 133.454 175.122 133.61 174.99 133.832C174.858 134.054 174.792 134.36 174.792 134.75V137H174.036ZM178.884 137C178.476 137 178.155 136.901 177.921 136.703C177.687 136.505 177.57 136.148 177.57 135.632V133.175H176.796V132.536H177.57L177.669 131.465H178.326V132.536H179.64V133.175H178.326V135.632C178.326 135.914 178.383 136.106 178.497 136.208C178.611 136.304 178.812 136.352 179.1 136.352H179.568V137H178.884Z" fill="#8F92A1"/>
<path d="M210.939 137V131.546L209.922 131.771V131.249L211.191 130.7H211.704V137H210.939ZM215.305 137.108C214.747 137.108 214.264 136.973 213.856 136.703C213.454 136.427 213.145 136.046 212.929 135.56C212.713 135.068 212.605 134.498 212.605 133.85C212.605 133.202 212.713 132.635 212.929 132.149C213.145 131.657 213.454 131.276 213.856 131.006C214.264 130.73 214.747 130.592 215.305 130.592C215.863 130.592 216.343 130.73 216.745 131.006C217.147 131.276 217.456 131.657 217.672 132.149C217.888 132.635 217.996 133.202 217.996 133.85C217.996 134.498 217.888 135.068 217.672 135.56C217.456 136.046 217.147 136.427 216.745 136.703C216.343 136.973 215.863 137.108 215.305 137.108ZM215.305 136.442C215.671 136.442 215.998 136.34 216.286 136.136C216.58 135.926 216.808 135.629 216.97 135.245C217.138 134.855 217.222 134.39 217.222 133.85C217.222 133.31 217.138 132.848 216.97 132.464C216.808 132.08 216.58 131.786 216.286 131.582C215.998 131.372 215.671 131.267 215.305 131.267C214.933 131.267 214.603 131.372 214.315 131.582C214.027 131.786 213.799 132.08 213.631 132.464C213.463 132.848 213.379 133.31 213.379 133.85C213.379 134.39 213.463 134.855 213.631 135.245C213.799 135.629 214.027 135.926 214.315 136.136C214.603 136.34 214.933 136.442 215.305 136.442ZM221.054 137V132.536H221.738L221.792 133.184C221.936 132.944 222.128 132.758 222.368 132.626C222.608 132.494 222.878 132.428 223.178 132.428C223.532 132.428 223.835 132.5 224.087 132.644C224.345 132.788 224.543 133.007 224.681 133.301C224.837 133.031 225.05 132.818 225.32 132.662C225.596 132.506 225.893 132.428 226.211 132.428C226.745 132.428 227.171 132.59 227.489 132.914C227.807 133.232 227.966 133.724 227.966 134.39V137H227.219V134.471C227.219 134.009 227.126 133.661 226.94 133.427C226.754 133.193 226.487 133.076 226.139 133.076C225.779 133.076 225.479 133.217 225.239 133.499C225.005 133.775 224.888 134.171 224.888 134.687V137H224.132V134.471C224.132 134.009 224.039 133.661 223.853 133.427C223.667 133.193 223.4 133.076 223.052 133.076C222.698 133.076 222.401 133.217 222.161 133.499C221.927 133.775 221.81 134.171 221.81 134.687V137H221.054ZM230.404 137.108C230.032 137.108 229.723 137.045 229.477 136.919C229.231 136.793 229.048 136.625 228.928 136.415C228.808 136.205 228.748 135.977 228.748 135.731C228.748 135.275 228.922 134.924 229.27 134.678C229.618 134.432 230.092 134.309 230.692 134.309H231.898V134.255C231.898 133.865 231.796 133.571 231.592 133.373C231.388 133.169 231.115 133.067 230.773 133.067C230.479 133.067 230.224 133.142 230.008 133.292C229.798 133.436 229.666 133.649 229.612 133.931H228.838C228.868 133.607 228.976 133.334 229.162 133.112C229.354 132.89 229.591 132.722 229.873 132.608C230.155 132.488 230.455 132.428 230.773 132.428C231.397 132.428 231.865 132.596 232.177 132.932C232.495 133.262 232.654 133.703 232.654 134.255V137H231.979L231.934 136.199C231.808 136.451 231.622 136.667 231.376 136.847C231.136 137.021 230.812 137.108 230.404 137.108ZM230.521 136.469C230.809 136.469 231.055 136.394 231.259 136.244C231.469 136.094 231.628 135.899 231.736 135.659C231.844 135.419 231.898 135.167 231.898 134.903V134.894H230.755C230.311 134.894 229.996 134.972 229.81 135.128C229.63 135.278 229.54 135.467 229.54 135.695C229.54 135.929 229.624 136.118 229.792 136.262C229.966 136.4 230.209 136.469 230.521 136.469ZM233.602 137V132.536H234.286L234.349 133.391C234.487 133.097 234.697 132.863 234.979 132.689C235.261 132.515 235.609 132.428 236.023 132.428V133.22H235.816C235.552 133.22 235.309 133.268 235.087 133.364C234.865 133.454 234.688 133.61 234.556 133.832C234.424 134.054 234.358 134.36 234.358 134.75V137H233.602ZM238.45 137C238.042 137 237.721 136.901 237.487 136.703C237.253 136.505 237.136 136.148 237.136 135.632V133.175H236.362V132.536H237.136L237.235 131.465H237.892V132.536H239.206V133.175H237.892V135.632C237.892 135.914 237.949 136.106 238.063 136.208C238.177 136.304 238.378 136.352 238.666 136.352H239.134V137H238.45Z" fill="#8F92A1"/>
<path d="M268.464 136V130.546L267.447 130.771V130.249L268.716 129.7H269.229V136H268.464ZM270.895 136L273.397 130.348H269.941V129.7H274.171V130.267L271.696 136H270.895ZM277.138 136V131.536H277.822L277.876 132.184C278.02 131.944 278.212 131.758 278.452 131.626C278.692 131.494 278.962 131.428 279.262 131.428C279.616 131.428 279.919 131.5 280.171 131.644C280.429 131.788 280.627 132.007 280.765 132.301C280.921 132.031 281.134 131.818 281.404 131.662C281.68 131.506 281.977 131.428 282.295 131.428C282.829 131.428 283.255 131.59 283.573 131.914C283.891 132.232 284.05 132.724 284.05 133.39V136H283.303V133.471C283.303 133.009 283.21 132.661 283.024 132.427C282.838 132.193 282.571 132.076 282.223 132.076C281.863 132.076 281.563 132.217 281.323 132.499C281.089 132.775 280.972 133.171 280.972 133.687V136H280.216V133.471C280.216 133.009 280.123 132.661 279.937 132.427C279.751 132.193 279.484 132.076 279.136 132.076C278.782 132.076 278.485 132.217 278.245 132.499C278.011 132.775 277.894 133.171 277.894 133.687V136H277.138ZM286.488 136.108C286.116 136.108 285.807 136.045 285.561 135.919C285.315 135.793 285.132 135.625 285.012 135.415C284.892 135.205 284.832 134.977 284.832 134.731C284.832 134.275 285.006 133.924 285.354 133.678C285.702 133.432 286.176 133.309 286.776 133.309H287.982V133.255C287.982 132.865 287.88 132.571 287.676 132.373C287.472 132.169 287.199 132.067 286.857 132.067C286.563 132.067 286.308 132.142 286.092 132.292C285.882 132.436 285.75 132.649 285.696 132.931H284.922C284.952 132.607 285.06 132.334 285.246 132.112C285.438 131.89 285.675 131.722 285.957 131.608C286.239 131.488 286.539 131.428 286.857 131.428C287.481 131.428 287.949 131.596 288.261 131.932C288.579 132.262 288.738 132.703 288.738 133.255V136H288.063L288.018 135.199C287.892 135.451 287.706 135.667 287.46 135.847C287.22 136.021 286.896 136.108 286.488 136.108ZM286.605 135.469C286.893 135.469 287.139 135.394 287.343 135.244C287.553 135.094 287.712 134.899 287.82 134.659C287.928 134.419 287.982 134.167 287.982 133.903V133.894H286.839C286.395 133.894 286.08 133.972 285.894 134.128C285.714 134.278 285.624 134.467 285.624 134.695C285.624 134.929 285.708 135.118 285.876 135.262C286.05 135.4 286.293 135.469 286.605 135.469ZM289.686 136V131.536H290.37L290.433 132.391C290.571 132.097 290.781 131.863 291.063 131.689C291.345 131.515 291.693 131.428 292.107 131.428V132.22H291.9C291.636 132.22 291.393 132.268 291.171 132.364C290.949 132.454 290.772 132.61 290.64 132.832C290.508 133.054 290.442 133.36 290.442 133.75V136H289.686ZM294.534 136C294.126 136 293.805 135.901 293.571 135.703C293.337 135.505 293.22 135.148 293.22 134.632V132.175H292.446V131.536H293.22L293.319 130.465H293.976V131.536H295.29V132.175H293.976V134.632C293.976 134.914 294.033 135.106 294.147 135.208C294.261 135.304 294.462 135.352 294.75 135.352H295.218V136H294.534Z" fill="#8F92A1"/>
<path d="M324.454 136.108C324.052 136.108 323.689 136.036 323.365 135.892C323.041 135.742 322.78 135.52 322.582 135.226C322.39 134.932 322.288 134.566 322.276 134.128H323.041C323.047 134.488 323.173 134.8 323.419 135.064C323.665 135.322 324.01 135.451 324.454 135.451C324.898 135.451 325.231 135.328 325.453 135.082C325.681 134.836 325.795 134.539 325.795 134.191C325.795 133.897 325.723 133.657 325.579 133.471C325.441 133.285 325.252 133.147 325.012 133.057C324.778 132.967 324.52 132.922 324.238 132.922H323.77V132.283H324.238C324.646 132.283 324.964 132.19 325.192 132.004C325.426 131.818 325.543 131.557 325.543 131.221C325.543 130.939 325.45 130.708 325.264 130.528C325.084 130.342 324.814 130.249 324.454 130.249C324.106 130.249 323.827 130.354 323.617 130.564C323.407 130.768 323.29 131.026 323.266 131.338H322.501C322.519 130.996 322.609 130.693 322.771 130.429C322.939 130.165 323.167 129.961 323.455 129.817C323.743 129.667 324.076 129.592 324.454 129.592C324.862 129.592 325.201 129.664 325.471 129.808C325.747 129.952 325.954 130.144 326.092 130.384C326.236 130.624 326.308 130.888 326.308 131.176C326.308 131.494 326.221 131.785 326.047 132.049C325.873 132.307 325.612 132.481 325.264 132.571C325.636 132.649 325.945 132.826 326.191 133.102C326.437 133.378 326.56 133.741 326.56 134.191C326.56 134.539 326.479 134.86 326.317 135.154C326.161 135.442 325.927 135.673 325.615 135.847C325.303 136.021 324.916 136.108 324.454 136.108ZM328.069 136V130.546L327.052 130.771V130.249L328.321 129.7H328.834V136H328.069ZM332.129 136V131.536H332.813L332.867 132.184C333.011 131.944 333.203 131.758 333.443 131.626C333.683 131.494 333.953 131.428 334.253 131.428C334.607 131.428 334.91 131.5 335.162 131.644C335.42 131.788 335.618 132.007 335.756 132.301C335.912 132.031 336.125 131.818 336.395 131.662C336.671 131.506 336.968 131.428 337.286 131.428C337.82 131.428 338.246 131.59 338.564 131.914C338.882 132.232 339.041 132.724 339.041 133.39V136H338.294V133.471C338.294 133.009 338.201 132.661 338.015 132.427C337.829 132.193 337.562 132.076 337.214 132.076C336.854 132.076 336.554 132.217 336.314 132.499C336.08 132.775 335.963 133.171 335.963 133.687V136H335.207V133.471C335.207 133.009 335.114 132.661 334.928 132.427C334.742 132.193 334.475 132.076 334.127 132.076C333.773 132.076 333.476 132.217 333.236 132.499C333.002 132.775 332.885 133.171 332.885 133.687V136H332.129ZM341.479 136.108C341.107 136.108 340.798 136.045 340.552 135.919C340.306 135.793 340.123 135.625 340.003 135.415C339.883 135.205 339.823 134.977 339.823 134.731C339.823 134.275 339.997 133.924 340.345 133.678C340.693 133.432 341.167 133.309 341.767 133.309H342.973V133.255C342.973 132.865 342.871 132.571 342.667 132.373C342.463 132.169 342.19 132.067 341.848 132.067C341.554 132.067 341.299 132.142 341.083 132.292C340.873 132.436 340.741 132.649 340.687 132.931H339.913C339.943 132.607 340.051 132.334 340.237 132.112C340.429 131.89 340.666 131.722 340.948 131.608C341.23 131.488 341.53 131.428 341.848 131.428C342.472 131.428 342.94 131.596 343.252 131.932C343.57 132.262 343.729 132.703 343.729 133.255V136H343.054L343.009 135.199C342.883 135.451 342.697 135.667 342.451 135.847C342.211 136.021 341.887 136.108 341.479 136.108ZM341.596 135.469C341.884 135.469 342.13 135.394 342.334 135.244C342.544 135.094 342.703 134.899 342.811 134.659C342.919 134.419 342.973 134.167 342.973 133.903V133.894H341.83C341.386 133.894 341.071 133.972 340.885 134.128C340.705 134.278 340.615 134.467 340.615 134.695C340.615 134.929 340.699 135.118 340.867 135.262C341.041 135.4 341.284 135.469 341.596 135.469ZM344.678 136V131.536H345.362L345.425 132.391C345.563 132.097 345.773 131.863 346.055 131.689C346.337 131.515 346.685 131.428 347.099 131.428V132.22H346.892C346.628 132.22 346.385 132.268 346.163 132.364C345.941 132.454 345.764 132.61 345.632 132.832C345.5 133.054 345.434 133.36 345.434 133.75V136H344.678ZM349.526 136C349.118 136 348.797 135.901 348.563 135.703C348.329 135.505 348.212 135.148 348.212 134.632V132.175H347.438V131.536H348.212L348.311 130.465H348.968V131.536H350.282V132.175H348.968V134.632C348.968 134.914 349.025 135.106 349.139 135.208C349.253 135.304 349.454 135.352 349.742 135.352H350.21V136H349.526Z" fill="#8F92A1"/>
<path d="M379.101 136L381.603 130.348H378.147V129.7H382.377V130.267L379.902 136H379.101ZM386.828 136.108C386.456 136.108 386.147 136.045 385.901 135.919C385.655 135.793 385.472 135.625 385.352 135.415C385.232 135.205 385.172 134.977 385.172 134.731C385.172 134.275 385.346 133.924 385.694 133.678C386.042 133.432 386.516 133.309 387.116 133.309H388.322V133.255C388.322 132.865 388.22 132.571 388.016 132.373C387.812 132.169 387.539 132.067 387.197 132.067C386.903 132.067 386.648 132.142 386.432 132.292C386.222 132.436 386.09 132.649 386.036 132.931H385.262C385.292 132.607 385.4 132.334 385.586 132.112C385.778 131.89 386.015 131.722 386.297 131.608C386.579 131.488 386.879 131.428 387.197 131.428C387.821 131.428 388.289 131.596 388.601 131.932C388.919 132.262 389.078 132.703 389.078 133.255V136H388.403L388.358 135.199C388.232 135.451 388.046 135.667 387.8 135.847C387.56 136.021 387.236 136.108 386.828 136.108ZM386.945 135.469C387.233 135.469 387.479 135.394 387.683 135.244C387.893 135.094 388.052 134.899 388.16 134.659C388.268 134.419 388.322 134.167 388.322 133.903V133.894H387.179C386.735 133.894 386.42 133.972 386.234 134.128C386.054 134.278 385.964 134.467 385.964 134.695C385.964 134.929 386.048 135.118 386.216 135.262C386.39 135.4 386.633 135.469 386.945 135.469ZM390.027 137.98V131.536H390.711L390.783 132.274C390.927 132.058 391.131 131.863 391.395 131.689C391.665 131.515 392.007 131.428 392.421 131.428C392.865 131.428 393.252 131.53 393.582 131.734C393.912 131.938 394.167 132.217 394.347 132.571C394.533 132.925 394.626 133.327 394.626 133.777C394.626 134.227 394.533 134.629 394.347 134.983C394.167 135.331 393.909 135.607 393.573 135.811C393.243 136.009 392.856 136.108 392.412 136.108C392.046 136.108 391.719 136.033 391.431 135.883C391.149 135.733 390.933 135.523 390.783 135.253V137.98H390.027ZM392.331 135.451C392.631 135.451 392.895 135.382 393.123 135.244C393.351 135.1 393.531 134.902 393.663 134.65C393.795 134.398 393.861 134.104 393.861 133.768C393.861 133.432 393.795 133.138 393.663 132.886C393.531 132.634 393.351 132.439 393.123 132.301C392.895 132.157 392.631 132.085 392.331 132.085C392.031 132.085 391.767 132.157 391.539 132.301C391.311 132.439 391.131 132.634 390.999 132.886C390.867 133.138 390.801 133.432 390.801 133.768C390.801 134.104 390.867 134.398 390.999 134.65C391.131 134.902 391.311 135.1 391.539 135.244C391.767 135.382 392.031 135.451 392.331 135.451ZM395.492 136V131.536H396.176L396.239 132.391C396.377 132.097 396.587 131.863 396.869 131.689C397.151 131.515 397.499 131.428 397.913 131.428V132.22H397.706C397.442 132.22 397.199 132.268 396.977 132.364C396.755 132.454 396.578 132.61 396.446 132.832C396.314 133.054 396.248 133.36 396.248 133.75V136H395.492ZM400.416 136.108C399.99 136.108 399.612 136.012 399.282 135.82C398.952 135.622 398.691 135.349 398.499 135.001C398.313 134.653 398.22 134.242 398.22 133.768C398.22 133.3 398.313 132.892 398.499 132.544C398.685 132.19 398.943 131.917 399.273 131.725C399.609 131.527 399.996 131.428 400.434 131.428C400.866 131.428 401.238 131.527 401.55 131.725C401.868 131.917 402.111 132.172 402.279 132.49C402.447 132.808 402.531 133.15 402.531 133.516C402.531 133.582 402.528 133.648 402.522 133.714C402.522 133.78 402.522 133.855 402.522 133.939H398.967C398.985 134.281 399.063 134.566 399.201 134.794C399.345 135.016 399.522 135.184 399.732 135.298C399.948 135.412 400.176 135.469 400.416 135.469C400.728 135.469 400.989 135.397 401.199 135.253C401.409 135.109 401.562 134.914 401.658 134.668H402.405C402.285 135.082 402.054 135.427 401.712 135.703C401.376 135.973 400.944 136.108 400.416 136.108ZM400.416 132.067C400.056 132.067 399.735 132.178 399.453 132.4C399.177 132.616 399.018 132.934 398.976 133.354H401.784C401.766 132.952 401.628 132.637 401.37 132.409C401.112 132.181 400.794 132.067 400.416 132.067ZM403.348 136V129.52H404.104V136H403.348Z" fill="#8F92A1"/>
<rect x="45.7057" y="25" width="1.43813" height="90" fill="#EAEEFD"/>
<rect x="160.756" y="25" width="1.43813" height="90" fill="#EAEEFD"/>
<rect x="106.107" y="24" width="1.43813" height="90" fill="#EAEEFD"/>
<rect x="218.281" y="21" width="1.43813" height="90" fill="#EAEEFD"/>
<rect x="333.331" y="24" width="1.43813" height="90" fill="#EAEEFD"/>
<rect x="275.806" y="25" width="1.43813" height="90" fill="#EAEEFD"/>
<rect x="390.856" y="25" width="1.43813" height="90" fill="#EAEEFD"/>
<g filter="url(#filter0_d)">
<path d="M45.7057 114L70.9966 106.891C76.4141 105.368 80.9394 101.633 83.4622 96.6028L92.8476 77.8882C99.1951 65.2314 116.323 62.9972 125.705 73.6022L138.014 87.5161C138.792 88.396 139.647 89.2056 140.567 89.9356L157.989 103.749C165.495 109.701 176.168 109.495 183.438 103.257L191.28 96.5289C200.318 88.7746 214.088 90.5874 220.811 100.417L221.701 101.718C229.076 112.501 244.641 113.433 253.251 103.607L265.02 90.1756L279.712 70.4138C287.09 60.4896 301.616 59.5722 310.184 68.4895L317.088 75.6748C324.252 83.1311 335.919 83.897 343.996 77.4412L345.716 76.0667C352.481 70.6598 361.958 70.2214 369.193 74.9806L392.294 90.1756" stroke="#FF8831" stroke-width="3" stroke-linecap="round" stroke-linejoin="round"/>
</g>
<path d="M45.7057 114L68.1989 93.6469C73.3767 88.9617 80.3384 86.764 87.2677 87.627L97.5594 88.9087C104.057 89.7179 110.603 87.8371 115.681 83.7022L119.759 80.3807C129.867 72.1495 144.873 74.4555 152.042 85.3417L152.779 86.4597C161.258 99.3345 180.219 99.1062 188.386 86.031L190.95 81.9254C195.878 74.0351 206.36 71.791 214.087 76.9719V76.9719C223.041 82.9756 235.253 78.8986 238.804 68.7199L249.177 38.9923C254.504 23.7248 275.145 21.4377 283.685 35.1686L284.631 36.689C289.706 44.8494 300.425 47.3682 308.604 42.3224V42.3224C317.212 37.0121 328.517 40.1105 333.214 49.0673L348.666 78.531C353.034 86.8601 361.864 91.8703 371.255 91.3473L392.294 90.1756" stroke="#3D41D7" stroke-width="3" stroke-linecap="round" stroke-linejoin="round"/>
<defs>
<filter id="filter0_d" x="0.205301" y="16.8459" width="437.589" height="142.654" filterUnits="userSpaceOnUse" color-interpolation-filters="sRGB">
<feFlood flood-opacity="0" result="BackgroundImageFix"/>
<feColorMatrix in="SourceAlpha" type="matrix" values="0 0 0 0 0 0 0 0 0 0 0 0 0 0 0 0 0 0 127 0" result="hardAlpha"/>
<feOffset/>
<feGaussianBlur stdDeviation="22"/>
<feColorMatrix type="matrix" values="0 0 0 0 0.1325 0 0 0 0 0.145427 0 0 0 0 0.6625 0 0 0 0.1 0"/>
<feBlend mode="normal" in2="BackgroundImageFix" result="effect1_dropShadow"/>
<feBlend mode="normal" in="SourceGraphic" in2="effect1_dropShadow" result="shape"/>
</filter>
</defs>
</svg>
