<svg width="396" height="417" viewBox="0 0 396 417" fill="none" xmlns="http://www.w3.org/2000/svg">
<rect width="396" height="417" fill="black"/>
<g clip-path="url(#clip0)">
<path d="M-1044 -161H396V829H-1044V-161Z" fill="white"/>
<g filter="url(#filter0_d)">
<circle cx="-148" cy="568" r="113" fill="white"/>
</g>
<g filter="url(#filter1_d)">
<rect x="34" y="20" width="314" height="329" rx="20" fill="url(#paint0_linear)"/>
</g>
<mask id="mask0" style="mask-type:alpha" maskUnits="userSpaceOnUse" x="34" y="20" width="314" height="329">
<rect x="34" y="20" width="314" height="329" rx="20" fill="url(#paint1_linear)"/>
</mask>
<g mask="url(#mask0)">
<g opacity="0.1">
<mask id="path-5-inside-1" fill="white">
<path d="M437.83 150C538.518 150 474.774 271.349 556.233 326.535C637.691 381.72 732.55 281.45 763.664 370.742C794.779 460.035 794.779 478.888 763.664 568.181C732.55 657.473 720.665 672.726 639.207 727.911C557.748 783.097 550.188 695.875 449.5 695.875C348.812 695.875 317.912 783.097 236.453 727.911C154.994 672.726 143.11 657.473 111.995 568.181C80.881 478.888 161.819 506.045 192.934 416.752C224.048 327.46 154.994 266.197 236.453 211.012C317.912 155.826 337.141 150 437.83 150Z"/>
</mask>
<path d="M437.83 150C538.518 150 474.774 271.349 556.233 326.535C637.691 381.72 732.55 281.45 763.664 370.742C794.779 460.035 794.779 478.888 763.664 568.181C732.55 657.473 720.665 672.726 639.207 727.911C557.748 783.097 550.188 695.875 449.5 695.875C348.812 695.875 317.912 783.097 236.453 727.911C154.994 672.726 143.11 657.473 111.995 568.181C80.881 478.888 161.819 506.045 192.934 416.752C224.048 327.46 154.994 266.197 236.453 211.012C317.912 155.826 337.141 150 437.83 150Z" stroke="white" stroke-width="4" mask="url(#path-5-inside-1)"/>
<mask id="path-6-inside-2" fill="white">
<path d="M439.329 210.046C504.358 210.233 463.056 213.873 495.566 269.63C528.077 325.386 457.315 335.37 699.71 386.939C942.105 438.509 724.366 474.203 699.71 545.158C675.055 616.113 665.715 657.421 600.254 673.16C534.793 688.898 519.792 607.76 439.329 607.76C358.867 607.76 343.135 688.722 278.405 673.16C213.676 657.597 187.004 602.916 178.949 545.158C170.893 487.4 216.009 503.291 243.628 423.81C271.246 344.328 232.013 309.612 278.405 258.938C324.797 208.264 374.301 209.859 439.329 210.046Z"/>
</mask>
<path d="M439.329 210.046C504.358 210.233 463.056 213.873 495.566 269.63C528.077 325.386 457.315 335.37 699.71 386.939C942.105 438.509 724.366 474.203 699.71 545.158C675.055 616.113 665.715 657.421 600.254 673.16C534.793 688.898 519.792 607.76 439.329 607.76C358.867 607.76 343.135 688.722 278.405 673.16C213.676 657.597 187.004 602.916 178.949 545.158C170.893 487.4 216.009 503.291 243.628 423.81C271.246 344.328 232.013 309.612 278.405 258.938C324.797 208.264 374.301 209.859 439.329 210.046Z" stroke="white" stroke-width="2" mask="url(#path-6-inside-2)"/>
<mask id="path-7-inside-3" fill="white">
<path d="M442.321 257.04C495.715 276.308 468.137 336.163 518.189 370.034C568.24 403.906 617.166 358.838 651.103 398.33C685.04 437.823 726.825 419.763 707.056 476.436C687.286 533.11 623.693 619.343 571.355 626.943C519.017 634.542 515.936 590.482 449.556 590.482C383.175 590.482 363.722 633.908 313.286 626.943C262.85 619.978 207.888 577.364 201.429 531.232C194.97 485.099 263.255 491.264 285.4 427.78C307.546 364.296 263.857 310.302 301.056 269.827C338.255 229.353 388.927 237.772 442.321 257.04Z"/>
</mask>
<path d="M442.321 257.04C495.715 276.308 468.137 336.163 518.189 370.034C568.24 403.906 617.166 358.838 651.103 398.33C685.04 437.823 726.825 419.763 707.056 476.436C687.286 533.11 623.693 619.343 571.355 626.943C519.017 634.542 515.936 590.482 449.556 590.482C383.175 590.482 363.722 633.908 313.286 626.943C262.85 619.978 207.888 577.364 201.429 531.232C194.97 485.099 263.255 491.264 285.4 427.78C307.546 364.296 263.857 310.302 301.056 269.827C338.255 229.353 388.927 237.772 442.321 257.04Z" stroke="white" stroke-width="4" mask="url(#path-7-inside-3)"/>
<mask id="path-8-inside-4" fill="white">
<path d="M374.324 257C425.849 257 461.549 356.856 503.233 385.151C544.918 413.447 569.82 407.818 609.382 407.818C648.945 407.818 695.246 450.955 679.324 496.738C663.402 542.521 587.378 562.655 545.694 590.951C504.009 619.246 498.349 532.727 446.824 532.727C395.299 532.727 381.277 619.246 339.592 590.951C297.908 562.655 258.124 612.419 242.202 566.636C226.279 520.853 301.4 477.192 317.322 431.409C333.244 385.626 297.908 354.214 339.592 325.919C381.277 297.623 322.799 257 374.324 257Z"/>
</mask>
<path d="M374.324 257C425.849 257 461.549 356.856 503.233 385.151C544.918 413.447 569.82 407.818 609.382 407.818C648.945 407.818 695.246 450.955 679.324 496.738C663.402 542.521 587.378 562.655 545.694 590.951C504.009 619.246 498.349 532.727 446.824 532.727C395.299 532.727 381.277 619.246 339.592 590.951C297.908 562.655 258.124 612.419 242.202 566.636C226.279 520.853 301.4 477.192 317.322 431.409C333.244 385.626 297.908 354.214 339.592 325.919C381.277 297.623 322.799 257 374.324 257Z" stroke="white" stroke-width="2" mask="url(#path-8-inside-4)"/>
</g>
</g>
</g>
<defs>
<filter id="filter0_d" x="-305" y="411" width="314" height="314" filterUnits="userSpaceOnUse" color-interpolation-filters="sRGB">
<feFlood flood-opacity="0" result="BackgroundImageFix"/>
<feColorMatrix in="SourceAlpha" type="matrix" values="0 0 0 0 0 0 0 0 0 0 0 0 0 0 0 0 0 0 127 0" result="hardAlpha"/>
<feOffset/>
<feGaussianBlur stdDeviation="22"/>
<feColorMatrix type="matrix" values="0 0 0 0 0.1325 0 0 0 0 0.145427 0 0 0 0 0.6625 0 0 0 0.1 0"/>
<feBlend mode="normal" in2="BackgroundImageFix" result="effect1_dropShadow"/>
<feBlend mode="normal" in="SourceGraphic" in2="effect1_dropShadow" result="shape"/>
</filter>
<filter id="filter1_d" x="0" y="0" width="402" height="417" filterUnits="userSpaceOnUse" color-interpolation-filters="sRGB">
<feFlood flood-opacity="0" result="BackgroundImageFix"/>
<feColorMatrix in="SourceAlpha" type="matrix" values="0 0 0 0 0 0 0 0 0 0 0 0 0 0 0 0 0 0 127 0" result="hardAlpha"/>
<feOffset dx="10" dy="24"/>
<feGaussianBlur stdDeviation="22"/>
<feColorMatrix type="matrix" values="0 0 0 0 0.1325 0 0 0 0 0.145427 0 0 0 0 0.6625 0 0 0 0.2 0"/>
<feBlend mode="normal" in2="BackgroundImageFix" result="effect1_dropShadow"/>
<feBlend mode="normal" in="SourceGraphic" in2="effect1_dropShadow" result="shape"/>
</filter>
<linearGradient id="paint0_linear" x1="34" y1="29.4" x2="388.066" y2="329.253" gradientUnits="userSpaceOnUse">
<stop stop-color="#3D41D7"/>
<stop offset="1" stop-color="#895FE0"/>
</linearGradient>
<linearGradient id="paint1_linear" x1="34" y1="29.4" x2="388.066" y2="329.253" gradientUnits="userSpaceOnUse">
<stop stop-color="#3D41D7"/>
<stop offset="1" stop-color="#5243AA"/>
</linearGradient>
<clipPath id="clip0">
<rect width="1440" height="948" fill="white" transform="translate(-1044 -161)"/>
</clipPath>
</defs>
</svg>
