<svg width="314" height="297" viewBox="0 0 314 297" fill="none" xmlns="http://www.w3.org/2000/svg">
<rect width="314" height="297" rx="20" fill="#F6F8FF" fill-opacity="0.8"/>
<mask id="mask0" style="mask-type:alpha" maskUnits="userSpaceOnUse" x="0" y="0" width="314" height="297">
<rect width="314" height="297" rx="20" fill="#F6F8FF" fill-opacity="0.8"/>
</mask>
<g mask="url(#mask0)">
<path d="M278.773 183C303.097 183 317.275 189.03 326.22 198.561C335.212 208.142 339.078 221.419 342.403 236.337C342.963 238.851 343.507 241.408 344.058 243.998C350.019 272.02 356.778 303.797 393.467 324.261C430.469 344.899 470.286 338.618 505.063 333.131C507.864 332.689 510.632 332.253 513.364 331.836C531.766 329.026 548.431 327.111 562.365 330.282C576.186 333.427 587.375 341.591 594.82 359.184C609.962 394.958 617.442 416.435 617.442 437.858C617.442 459.282 609.962 480.758 594.82 516.533C579.686 552.291 569.287 573.07 552.845 590.444C536.387 607.834 513.821 621.87 474.183 643.979C454.476 654.971 439.336 658.817 426.204 658.489C413.065 658.161 401.816 653.654 389.859 647.702C386.793 646.176 383.685 644.557 380.491 642.894C358.755 631.572 333.071 618.194 290.126 618.194C248.521 618.194 219.059 630.752 193.077 641.826C188.324 643.852 183.687 645.829 179.113 647.67C164.313 653.626 150.201 658.16 134.894 658.489C119.606 658.819 103.043 654.956 83.3633 643.979C43.7259 621.87 21.1596 607.834 4.70157 590.444C-11.7407 573.07 -22.1397 552.291 -37.274 516.533C-44.7978 498.756 -45.4458 487.006 -41.9876 478.226C-38.5181 469.417 -30.826 463.343 -20.9936 457.128C-18.463 455.529 -15.7986 453.926 -13.0442 452.268C5.51377 441.1 28.1538 427.476 41.4617 396.033C53.969 366.482 49.9816 340.651 46.4364 317.686C45.6543 312.619 44.8936 307.692 44.3364 302.895C42.7905 289.586 42.7927 277.292 48.0008 265.608C53.2037 253.935 63.6713 242.721 83.3633 231.738C122.986 209.638 147.369 197.484 174.052 190.828C200.742 184.17 229.79 183 278.773 183Z" stroke="white" stroke-width="2"/>
<path d="M280.231 230.591C296.063 230.628 305.362 230.84 310.933 231.823C313.714 232.314 315.504 232.988 316.703 233.882C317.883 234.763 318.534 235.891 318.967 237.4C319.353 238.744 319.556 240.35 319.805 242.325C319.84 242.606 319.877 242.895 319.915 243.192C320.218 245.553 320.618 248.354 321.46 251.661C323.145 258.281 326.592 266.891 334.531 278.101C341.975 288.612 343.805 297.06 345.407 304.451C345.492 304.847 345.578 305.24 345.663 305.63C346.502 309.467 347.364 313.059 349.049 316.493C350.74 319.939 353.249 323.21 357.359 326.439C365.556 332.88 380.133 339.167 407.339 346.424C434.561 353.685 474.489 361.932 533.441 372.258C562.908 377.42 585.369 382.38 602.073 387.219C618.788 392.06 629.694 396.768 636.085 401.403C639.277 403.719 641.312 405.994 642.395 408.23C643.471 410.452 643.62 412.661 642.993 414.891C641.724 419.404 637.265 424.05 630.651 428.9C624.061 433.731 615.439 438.692 606.001 443.868C603.175 445.418 600.276 446.987 597.338 448.577C590.476 452.292 583.403 456.121 576.555 460.085C566.773 465.749 557.425 471.705 549.767 478.032C542.114 484.355 536.11 491.079 533.067 498.29C531.293 502.494 529.6 506.566 527.962 510.508C518.515 533.242 510.874 551.63 499.644 566.019C486.504 582.854 468.429 594.226 436.68 600.511C405.062 606.769 385.65 593.795 364.26 579.126L363.487 578.597C342.299 564.062 319.062 548.123 280.232 548.123C241.305 548.123 217.874 564.108 196.553 578.654L195.938 579.073C174.456 593.726 155.046 606.699 123.784 600.511C92.4039 594.299 70.2792 580.29 55.0203 562.094C39.7556 543.891 31.3373 521.469 27.4294 498.4C25.4832 486.912 26.7584 479.155 30.1226 472.974C33.4998 466.769 39.0107 462.09 45.6925 456.806C46.3887 456.256 47.097 455.699 47.816 455.134C60.8931 444.856 77.533 431.778 90.3164 401.49C102.244 373.229 101.401 351.985 100.673 333.644C100.578 331.252 100.485 328.909 100.422 326.607C100.152 316.629 100.455 307.434 103.613 298.213C106.768 289.001 112.789 279.722 124.021 269.621C167.778 230.27 214.362 230.403 275.164 230.577C276.842 230.582 278.531 230.587 280.231 230.591Z" stroke="white"/>
<path d="M282.857 268.688C295.667 272.494 303.544 278.275 308.952 285.181C314.385 292.12 317.378 300.255 320.316 308.913C320.564 309.644 320.812 310.378 321.06 311.115C326.688 327.812 332.79 345.913 356.459 359.1C380.451 372.468 404.185 370.653 425.789 369.001C426.377 368.956 426.964 368.911 427.548 368.867C449.719 367.183 469.409 366.145 485.551 381.611C493.91 389.619 502.744 394.701 510.957 398.53C514.845 400.343 518.601 401.878 522.091 403.304L522.666 403.539C526.327 405.036 529.669 406.417 532.599 407.899C538.465 410.866 542.462 414.134 543.965 419.251C545.486 424.427 544.538 431.76 539.752 443.054C530.2 465.599 510.015 494.107 485.851 517.739C461.661 541.397 433.667 559.99 408.547 562.993C395.942 564.5 386.344 563.443 378.032 561.03C369.829 558.649 362.844 554.941 355.372 550.974L355.014 550.784C339.77 542.691 322.706 533.784 290.18 533.784C257.683 533.784 236.655 542.547 217.693 550.555L217.232 550.75C198.479 558.672 181.779 565.726 157.731 562.992C133.37 560.222 107.891 550.357 87.733 536.596C67.545 522.814 52.8665 505.248 49.7909 487.163C49.0307 482.692 49.3764 478.905 50.5685 475.585C51.7624 472.261 53.8261 469.349 56.5856 466.663C62.1407 461.258 70.3814 456.89 79.6789 451.999L80.0224 451.818C98.4348 442.133 120.551 430.499 131.412 404.865C141.425 381.234 137.76 359.207 134.465 339.399C134.171 337.633 133.88 335.884 133.602 334.154C131.897 323.542 130.678 313.649 132.093 304.414C133.5 295.228 137.52 286.66 146.388 278.715C182.129 246.698 230.902 253.251 282.857 268.688Z" stroke="white" stroke-width="2"/>
<path d="M216.995 268.197C229.387 268.197 240.855 273.138 251.741 280.953C262.631 288.77 272.908 299.44 282.91 310.847C287.085 315.608 291.219 320.506 295.329 325.376C301.044 332.146 306.711 338.861 312.375 345.073C322.124 355.767 331.942 365.064 342.153 370.77C376.828 390.149 399.655 389.729 429.436 389.182C434.601 389.087 439.976 388.988 445.658 388.988C464.767 388.988 485.528 397.572 499.576 410.711C513.618 423.845 520.87 441.435 513.235 459.509C509.413 468.559 501.967 476.376 492.26 483.371C482.556 490.364 470.628 496.509 457.892 502.228C448.321 506.526 438.31 510.576 428.456 514.562C425.197 515.881 421.956 517.192 418.753 518.503C405.875 523.775 393.625 529.041 383.458 534.723C373.44 540.322 365.663 540.212 358.829 536.982C351.936 533.724 345.945 527.271 339.578 520.012C338.981 519.332 338.382 518.645 337.778 517.954C325.554 503.949 311.656 488.028 287.523 488.028C263.724 488.028 248.075 503.514 234.067 517.377C233.181 518.254 232.301 519.125 231.426 519.985C224.045 527.239 217.035 533.707 209.371 536.974C201.755 540.22 193.462 540.317 183.453 534.723C164.521 524.143 145.977 527.081 130.129 529.591C128.857 529.793 127.602 529.992 126.365 530.181C118.014 531.456 110.559 532.271 104.236 530.529C97.9677 528.802 92.752 524.542 88.9289 515.491C85.1346 506.509 86.7445 497.613 91.6129 488.69C96.4895 479.752 104.609 470.842 113.74 461.891C117.5 458.205 121.439 454.505 125.387 450.798C130.993 445.532 136.618 440.25 141.772 434.966C150.567 425.95 158.095 416.834 162.005 407.576C168.404 392.428 166.364 379.189 164.55 367.414C164.15 364.816 163.761 362.289 163.475 359.828C162.684 353.003 162.685 346.697 165.352 340.703C168.016 334.714 173.375 328.963 183.453 323.331C193.688 317.611 197.853 311.216 199.038 304.8C200.169 298.682 198.568 292.62 197.166 287.315C197.109 287.098 197.052 286.884 196.996 286.67C196.272 283.921 195.638 281.4 195.469 279.149C195.301 276.905 195.6 274.99 196.684 273.419C197.77 271.846 199.696 270.536 202.951 269.62C206.209 268.704 210.75 268.197 216.995 268.197Z" stroke="white"/>
</g>
</svg>
