<svg width="479" height="331" viewBox="0 0 479 331" fill="none" xmlns="http://www.w3.org/2000/svg">
<rect width="479" height="331" rx="20" fill="#F6F8FF"/>
<mask id="mask0" style="mask-type:alpha" maskUnits="userSpaceOnUse" x="0" y="0" width="479" height="331">
<rect width="479" height="331" rx="20" fill="#F6F8FF"/>
</mask>
<g mask="url(#mask0)">
<path d="M369.706 93C391.19 93 403.697 99.0076 411.598 108.516C419.561 118.098 422.989 131.387 425.935 146.313C426.431 148.829 426.913 151.389 427.401 153.981C432.675 181.985 438.658 213.756 471.168 234.234C503.996 254.911 539.335 248.615 570.122 243.129C572.604 242.687 575.057 242.25 577.477 241.833C593.778 239.022 608.49 237.118 620.779 240.275C632.943 243.401 642.847 251.524 649.451 269.145C662.857 304.915 669.489 326.409 669.489 347.858C669.489 369.307 662.857 390.802 649.451 426.572C636.047 462.335 626.837 483.117 612.278 500.489C597.712 517.87 577.741 531.899 542.644 554.006C525.204 564.99 511.836 568.816 500.265 568.49C488.684 568.163 478.757 563.677 468.17 557.726C465.458 556.202 462.708 554.584 459.881 552.921C440.634 541.598 417.847 528.194 379.759 528.194C342.866 528.194 316.734 540.773 293.727 551.848C289.52 553.874 285.417 555.849 281.372 557.687C268.27 563.642 255.804 568.161 242.293 568.489C228.808 568.817 214.178 564.971 196.769 554.006C161.672 531.899 141.701 517.87 127.135 500.489C112.576 483.117 103.366 462.335 89.9624 426.572C83.2977 408.789 82.713 397.005 85.7878 388.189C88.8645 379.367 95.6747 373.3 104.366 367.097C106.607 365.497 108.966 363.894 111.406 362.236C127.846 351.063 147.901 337.433 159.684 305.994C170.749 276.47 167.224 250.675 164.085 227.712C163.392 222.642 162.718 217.711 162.224 212.908C160.854 199.591 160.855 187.274 165.475 175.568C170.087 163.883 179.356 152.679 196.769 141.711C231.859 119.609 253.432 107.468 277.031 100.82C300.635 94.1714 326.33 93 369.706 93Z" stroke="white" stroke-width="2"/>
<path d="M370.997 140.591C385.02 140.628 393.243 140.841 398.164 141.821C400.617 142.31 402.187 142.979 403.237 143.864C404.274 144.738 404.854 145.865 405.24 147.385C405.582 148.733 405.762 150.344 405.983 152.318C406.014 152.599 406.047 152.888 406.08 153.185C406.348 155.545 406.702 158.343 407.447 161.648C408.938 168.261 411.988 176.868 419.018 188.078C425.613 198.593 427.235 207.046 428.653 214.441C428.729 214.836 428.804 215.229 428.88 215.618C430.37 223.314 431.926 229.933 439.237 236.42C446.506 242.87 459.428 249.161 483.523 256.42C507.634 263.682 542.994 271.93 595.199 282.256C621.289 287.417 641.175 292.377 655.961 297.214C670.758 302.054 680.405 306.758 686.055 311.385C688.875 313.696 690.678 315.97 691.638 318.209C692.595 320.439 692.729 322.662 692.17 324.906C691.044 329.43 687.092 334.074 681.243 338.918C675.411 343.747 667.778 348.706 659.422 353.882C656.92 355.431 654.354 357 651.753 358.59C645.676 362.304 639.41 366.134 633.345 370.1C624.682 375.764 616.401 381.722 609.617 388.052C602.835 394.379 597.52 401.104 594.827 408.309C593.256 412.513 591.758 416.585 590.307 420.527C581.941 443.262 575.174 461.652 565.229 476.042C553.595 492.875 537.602 504.234 509.513 510.513C481.567 516.76 464.412 503.819 445.462 489.143L444.771 488.608C426.015 474.079 405.417 458.123 370.998 458.123C336.494 458.123 315.725 474.124 296.85 488.665L296.299 489.09C277.268 503.75 260.113 516.689 232.484 510.513C177.007 498.112 154.118 454.56 147.195 408.41C145.47 396.912 146.6 389.142 149.584 382.952C152.575 376.745 157.454 372.069 163.368 366.787C163.984 366.237 164.611 365.681 165.247 365.116C176.831 354.834 191.567 341.756 202.885 311.471C213.444 283.22 212.697 261.987 212.053 243.646C211.969 241.254 211.886 238.911 211.831 236.608C211.592 226.629 211.86 217.425 214.659 208.196C217.455 198.976 222.788 189.697 232.731 179.6C271.457 140.271 312.671 140.404 366.511 140.577C367.997 140.582 369.492 140.587 370.997 140.591Z" stroke="white"/>
<path d="M373.257 178.677C384.56 182.47 391.519 188.231 396.306 195.135C401.119 202.076 403.772 210.219 406.374 218.88C406.595 219.615 406.816 220.354 407.037 221.096C412.014 237.77 417.416 255.872 438.397 269.073C459.694 282.473 480.774 280.653 499.902 279.001C500.425 278.956 500.947 278.911 501.468 278.866C521.096 277.183 538.442 276.152 552.69 291.568C560.098 299.583 567.932 304.673 575.218 308.509C578.664 310.324 581.994 311.86 585.083 313.286L585.593 313.521C588.837 315.019 591.79 316.397 594.377 317.875C599.54 320.824 603.082 324.08 604.42 329.221C605.776 334.435 604.925 341.798 600.687 353.093C592.225 375.647 574.348 404.156 552.955 427.783C531.526 451.45 506.766 470.002 484.594 472.995C473.464 474.497 464.997 473.443 457.666 471.04C450.421 468.666 444.25 464.966 437.627 460.995L437.318 460.81C423.814 452.714 408.667 443.784 379.807 443.784C350.981 443.784 332.325 452.565 315.533 460.574L315.142 460.761C298.523 468.688 283.782 475.72 262.549 472.994C241.019 470.23 218.485 460.381 200.648 446.63C182.796 432.866 169.784 415.303 167.055 397.181C165.711 388.261 168.236 381.94 173.078 376.62C177.987 371.225 185.269 366.866 193.504 361.974L193.793 361.802C210.117 352.105 229.719 340.461 239.337 314.827C248.193 291.222 244.953 269.226 242.035 249.417C241.774 247.651 241.517 245.902 241.271 244.171C238.251 222.942 236.951 204.501 252.598 188.673C284.18 156.724 327.256 163.243 373.257 178.677Z" stroke="white" stroke-width="2"/>
<path d="M315.001 178.197C325.94 178.197 336.075 183.123 345.712 190.935C355.351 198.749 364.45 209.416 373.308 220.824C377.004 225.585 380.665 230.483 384.305 235.352C389.365 242.123 394.384 248.838 399.399 255.05C408.032 265.742 416.729 275.045 425.78 280.757C443.792 292.125 458.202 296.69 472.392 298.406C482.364 299.611 492.24 299.407 503.149 299.181C507.719 299.086 512.47 298.988 517.485 298.988C534.371 298.988 552.736 307.556 565.17 320.689C577.597 333.815 584.038 351.424 577.266 369.529C573.879 378.584 567.285 386.399 558.696 393.389C550.107 400.378 539.55 406.521 528.275 412.238C519.8 416.535 510.937 420.584 502.212 424.571C499.326 425.889 496.456 427.2 493.619 428.512C482.215 433.784 471.363 439.052 462.356 444.737C457.917 447.538 453.991 448.897 450.436 449.164C446.887 449.43 443.671 448.609 440.643 446.993C434.554 443.742 429.253 437.298 423.612 430.035C423.081 429.351 422.547 428.661 422.009 427.965C411.198 413.976 398.871 398.028 377.454 398.028C366.215 398.028 357.033 402.418 349.04 408.605C342.001 414.054 335.857 420.919 330.035 427.424C329.258 428.293 328.486 429.155 327.718 430.007C321.179 437.264 314.979 443.723 308.206 446.983C304.833 448.607 301.329 449.43 297.576 449.164C293.821 448.897 289.784 447.535 285.35 444.737C268.554 434.137 252.094 437.082 238.062 439.593C236.935 439.794 235.823 439.993 234.728 440.182C227.33 441.458 220.754 442.267 215.182 440.534C209.666 438.818 205.047 434.576 201.657 425.511C198.29 416.51 199.721 407.595 204.034 398.668C208.354 389.729 215.544 380.818 223.628 371.869C226.957 368.184 230.444 364.485 233.94 360.777C238.905 355.511 243.887 350.228 248.451 344.944C256.241 335.926 262.906 326.81 266.367 317.557C272.028 302.423 270.224 289.201 268.618 277.427C268.264 274.827 267.919 272.298 267.666 269.835C266.965 263.006 266.965 256.688 269.33 250.683C271.692 244.688 276.437 238.942 285.35 233.317C294.431 227.586 298.111 221.187 299.158 214.79C300.157 208.684 298.742 202.633 297.5 197.325C297.45 197.11 297.4 196.896 297.35 196.684C296.709 193.936 296.147 191.41 295.997 189.153C295.847 186.899 296.114 184.973 297.078 183.395C298.037 181.825 299.733 180.525 302.596 179.616C305.467 178.704 309.476 178.197 315.001 178.197Z" stroke="white"/>
</g>
</svg>
