<svg width="1018" height="331" viewBox="0 0 1018 331" fill="none" xmlns="http://www.w3.org/2000/svg">
<rect width="1018" height="331" rx="20" fill="#F6F8FF"/>
<mask id="mask0" style="mask-type:alpha" maskUnits="userSpaceOnUse" x="16" y="0" width="1002" height="331">
<rect x="16.0473" width="1001.95" height="331" rx="20" fill="#F6F8FF"/>
</mask>
<g mask="url(#mask0)">
<path d="M743.899 126C765.448 126 777.992 132.008 785.917 141.517C793.904 151.1 797.342 164.388 800.296 179.313C800.794 181.829 801.278 184.389 801.767 186.982C807.056 214.985 813.057 246.757 845.663 267.234C878.587 287.911 914.027 281.615 944.906 276.129C947.395 275.687 949.855 275.25 952.282 274.833C968.631 272.022 983.389 270.118 995.715 273.275C1007.92 276.401 1017.85 284.526 1024.47 302.146C1037.92 337.916 1044.57 359.41 1044.57 380.858C1044.57 402.307 1037.92 423.801 1024.47 459.571C1011.03 495.333 1001.79 516.115 987.191 533.488C972.581 550.869 952.551 564.898 917.35 587.005C899.859 597.99 886.45 601.816 874.843 601.49C863.226 601.163 853.269 596.676 842.651 590.725C839.931 589.201 837.173 587.583 834.337 585.92C815.033 574.598 792.18 561.194 753.981 561.194C716.98 561.194 690.772 573.773 667.697 584.848C663.478 586.873 659.363 588.848 655.306 590.687C642.165 596.642 629.661 601.161 616.109 601.489C602.582 601.817 587.909 597.971 570.448 587.005C535.246 564.898 515.216 550.869 500.607 533.488C486.005 516.115 476.768 495.333 463.325 459.571C456.64 441.789 456.054 430.005 459.138 421.19C462.223 412.369 469.054 406.302 477.771 400.098C480.019 398.498 482.385 396.895 484.832 395.237C501.32 384.064 521.435 370.434 533.253 338.995C544.351 309.471 540.814 283.674 537.666 260.711C536.972 255.642 536.296 250.711 535.8 245.908C534.426 232.591 534.427 220.274 539.061 208.569C543.686 196.884 552.982 185.68 570.448 174.711C605.641 152.61 627.278 140.468 650.948 133.821C674.622 127.171 700.394 126 743.899 126Z" stroke="white" stroke-width="2"/>
<path d="M745.193 173.591C759.258 173.628 767.505 173.841 772.441 174.821C774.901 175.31 776.476 175.979 777.529 176.864C778.57 177.738 779.151 178.866 779.539 180.385C779.882 181.733 780.063 183.344 780.284 185.318C780.315 185.599 780.348 185.888 780.381 186.185C780.65 188.545 781.005 191.344 781.753 194.648C783.248 201.261 786.307 209.869 793.358 221.078C799.972 231.593 801.598 240.047 803.021 247.441C803.097 247.836 803.173 248.229 803.249 248.618C804.743 256.315 806.304 262.934 813.637 269.421C820.926 275.87 833.887 282.161 858.053 289.42C882.234 296.682 917.699 304.93 970.058 315.256C996.226 320.417 1016.17 325.377 1031 330.214C1045.84 335.054 1055.52 339.758 1061.18 344.386C1064.01 346.696 1065.82 348.97 1066.78 351.209C1067.74 353.44 1067.88 355.662 1067.32 357.906C1066.19 362.43 1062.22 367.074 1056.36 371.917C1050.51 376.746 1042.85 381.705 1034.47 386.881C1031.96 388.43 1029.39 389.999 1026.78 391.589C1020.69 395.303 1014.4 399.134 1008.32 403.099C999.629 408.764 991.324 414.721 984.52 421.051C977.718 427.378 972.387 434.103 969.686 441.309C968.111 445.513 966.608 449.585 965.153 453.526C956.763 476.261 949.975 494.652 940.001 509.041C928.332 525.874 912.292 537.234 884.119 543.513C856.089 549.76 838.882 536.818 819.877 522.143L819.184 521.608C800.372 507.078 779.714 491.123 745.194 491.123C710.589 491.123 689.759 507.123 670.829 521.665L670.276 522.089C651.189 536.749 633.983 549.69 606.27 543.513C550.627 531.112 527.672 487.559 520.728 441.41C518.998 429.912 520.132 422.142 523.124 415.952C526.124 409.746 531.017 405.069 536.949 399.788C537.567 399.237 538.195 398.681 538.834 398.117C550.452 387.835 565.231 374.756 576.583 344.471C587.173 316.22 586.424 294.987 585.778 276.646C585.693 274.254 585.611 271.911 585.555 269.608C585.315 259.629 585.584 250.426 588.391 241.197C591.195 231.977 596.545 222.698 606.517 212.6C645.358 173.271 686.695 173.404 740.694 173.577C742.184 173.582 743.683 173.587 745.193 173.591Z" stroke="white"/>
<path d="M747.461 211.677C758.799 215.47 765.779 221.232 770.58 228.136C775.407 235.077 778.068 243.22 780.678 251.88C780.899 252.616 781.121 253.355 781.343 254.096C786.334 270.771 791.753 288.873 812.795 302.074C834.153 315.473 855.294 313.653 874.479 312.001C875.004 311.956 875.527 311.911 876.049 311.866C895.735 310.183 913.135 309.152 927.426 324.569C934.856 332.584 942.713 337.674 950.02 341.509C953.477 343.324 956.816 344.861 959.915 346.287L960.426 346.522C963.679 348.02 966.641 349.397 969.236 350.875C974.415 353.825 977.968 357.081 979.309 362.221C980.669 367.435 979.815 374.797 975.565 386.092C967.078 408.646 949.148 437.154 927.692 460.782C906.2 484.448 881.366 503.001 859.127 505.995C847.962 507.497 839.47 506.443 832.117 504.04C824.85 501.665 818.66 497.965 812.018 493.995L811.707 493.809C798.164 485.713 782.973 476.784 754.029 476.784C725.119 476.784 706.409 485.564 689.568 493.574L689.175 493.76C672.507 501.688 657.721 508.72 636.424 505.994C614.829 503.229 592.228 493.38 574.338 479.629C556.432 465.865 543.382 448.301 540.645 430.181C539.298 421.262 541.83 414.941 546.686 409.621C551.61 404.226 558.913 399.867 567.172 394.974L567.463 394.802C583.835 385.106 603.494 373.461 613.14 347.827C622.023 324.222 618.773 302.226 615.847 282.416C615.586 280.65 615.327 278.902 615.08 277.171C612.051 255.942 610.748 237.502 626.441 221.674C658.118 189.723 701.324 196.243 747.461 211.677Z" stroke="white" stroke-width="2"/>
<path d="M689.032 211.197C700.003 211.197 710.169 216.123 719.835 223.936C729.503 231.75 738.628 242.417 747.512 253.824C751.22 258.585 754.891 263.483 758.541 268.353C763.617 275.123 768.65 281.838 773.681 288.051C782.339 298.743 791.062 308.045 800.139 313.757C818.204 325.125 832.656 329.69 846.888 331.406C856.89 332.611 866.795 332.407 877.735 332.181C882.319 332.086 887.084 331.988 892.114 331.988C909.051 331.988 927.47 340.556 939.942 353.69C952.405 366.815 958.865 384.424 952.073 402.528C948.676 411.583 942.062 419.399 933.448 426.388C924.834 433.378 914.245 439.52 902.937 445.238C894.437 449.535 885.548 453.584 876.796 457.571C873.902 458.889 871.023 460.2 868.178 461.511C856.741 466.783 845.857 472.052 836.823 477.736C832.371 480.538 828.434 481.897 824.867 482.164C821.307 482.43 818.081 481.609 815.044 479.992C808.936 476.742 803.62 470.297 797.962 463.035C797.429 462.351 796.894 461.66 796.355 460.965C785.511 446.976 773.149 431.028 751.669 431.028C740.398 431.028 731.189 435.418 723.172 441.605C716.112 447.054 709.951 453.919 704.112 460.423C703.332 461.292 702.558 462.155 701.788 463.007C695.23 470.264 689.011 476.723 682.218 479.983C678.835 481.607 675.32 482.431 671.555 482.164C667.788 481.896 663.738 480.535 659.291 477.736C642.446 467.137 625.939 470.082 611.866 472.593C610.735 472.794 609.62 472.993 608.522 473.182C601.102 474.458 594.506 475.267 588.917 473.534C583.383 471.817 578.751 467.575 575.351 458.51C571.974 449.51 573.41 440.595 577.735 431.669C582.067 422.729 589.279 413.819 597.387 404.87C600.725 401.185 604.223 397.485 607.729 393.778C612.709 388.512 617.705 383.228 622.283 377.945C630.096 368.926 636.781 359.811 640.252 350.558C645.93 335.423 644.121 322.2 642.51 310.426C642.155 307.827 641.809 305.298 641.555 302.835C640.852 296.006 640.852 289.688 643.224 283.683C645.593 277.689 650.352 271.943 659.291 266.318C668.399 260.587 672.09 254.188 673.14 247.79C674.142 241.684 672.723 235.633 671.477 230.325C671.427 230.11 671.377 229.896 671.327 229.683C670.684 226.935 670.12 224.41 669.969 222.153C669.819 219.9 670.087 217.974 671.054 216.396C672.016 214.826 673.717 213.525 676.589 212.616C679.469 211.704 683.491 211.197 689.032 211.197Z" stroke="white"/>
</g>
</svg>
